<!DOCTYPE svg PUBLIC "-//W3C//DTD SVG 1.1//EN" "http://www.w3.org/Graphics/SVG/1.1/DTD/svg11.dtd">
<svg xmlns="http://www.w3.org/2000/svg" xmlns:xlink="http://www.w3.org/1999/xlink" xmlns:jfreesvg="http://www.jfree.org/jfreesvg/svg" width="1000" height="600" text-rendering="auto" shape-rendering="auto">
<defs><clipPath id="368700617985045clip-0"><path d="M 0 0 L 1000 0 L 1000 600 L 0 600 L 0 0 Z "/></clipPath>
<clipPath id="368700617985045clip-1"><path d="M 62 10 L 62 546 L 988 546 L 988 10 Z "/></clipPath>
</defs>
<rect x="0" y="0" width="1000" height="600" style="fill: rgb(255,255,255); fill-opacity: 1.0" transform="matrix(1,0,0,1,0,0)" clip-path="url(#368700617985045clip-0)"/><rect x="334.06" y="577.03" width="331.89" height="21.97" style="fill: rgb(255,255,255); fill-opacity: 1.0" transform="matrix(1,0,0,1,0,0)" clip-path="url(#368700617985045clip-0)"/><line x1="334.56" y1="577.53" x2="665.44" y2="577.53" style="stroke-width: 1.0;stroke: rgb(0,0,0);stroke-opacity: 1.0;stroke-linecap: square;shape-rendering:crispEdges;" transform="matrix(1,0,0,1,0,0)" clip-path="url(#368700617985045clip-0)"/><line x1="334.56" y1="598.5" x2="665.44" y2="598.5" style="stroke-width: 1.0;stroke: rgb(0,0,0);stroke-opacity: 1.0;stroke-linecap: square;shape-rendering:crispEdges;" transform="matrix(1,0,0,1,0,0)" clip-path="url(#368700617985045clip-0)"/><line x1="334.56" y1="598.5" x2="334.56" y2="577.53" style="stroke-width: 1.0;stroke: rgb(0,0,0);stroke-opacity: 1.0;stroke-linecap: square;shape-rendering:crispEdges;" transform="matrix(1,0,0,1,0,0)" clip-path="url(#368700617985045clip-0)"/><line x1="665.44" y1="598.5" x2="665.44" y2="577.53" style="stroke-width: 1.0;stroke: rgb(0,0,0);stroke-opacity: 1.0;stroke-linecap: square;shape-rendering:crispEdges;" transform="matrix(1,0,0,1,0,0)" clip-path="url(#368700617985045clip-0)"/><g style="stroke-width: 1.0;stroke: rgb(255,85,85);stroke-opacity: 1.0;stroke-linecap: square;stroke-linejoin: bevel;shape-rendering:geometricPrecision;; fill: none" transform="matrix(1,0,0,1,0,0)" clip-path="url(#368700617985045clip-0)"><path d="M 338.06 588.02 L 352.06 588.02"/></g><g transform="matrix(1,0,0,1,0,0)"><text x="356.06" y="592.17" style="fill: rgb(64,64,64); fill-opacity: 1.0; font-family: sans-serif; font-size: 12px; " clip-path="url(#368700617985045clip-0)">Prefer not to disclose</text></g><g style="stroke-width: 1.0;stroke: rgb(85,85,255);stroke-opacity: 1.0;stroke-linecap: square;stroke-linejoin: bevel;shape-rendering:geometricPrecision;; fill: none" transform="matrix(1,0,0,1,0,0)" clip-path="url(#368700617985045clip-0)"><path d="M 489.4 588.02 L 503.4 588.02"/></g><g transform="matrix(1,0,0,1,0,0)"><text x="507.4" y="592.17" style="fill: rgb(64,64,64); fill-opacity: 1.0; font-family: sans-serif; font-size: 12px; " clip-path="url(#368700617985045clip-0)">Other</text></g><g style="stroke-width: 1.0;stroke: rgb(85,255,85);stroke-opacity: 1.0;stroke-linecap: square;stroke-linejoin: bevel;shape-rendering:geometricPrecision;; fill: none" transform="matrix(1,0,0,1,0,0)" clip-path="url(#368700617985045clip-0)"><path d="M 547.48 588.02 L 561.48 588.02"/></g><g transform="matrix(1,0,0,1,0,0)"><text x="565.48" y="592.17" style="fill: rgb(64,64,64); fill-opacity: 1.0; font-family: sans-serif; font-size: 12px; " clip-path="url(#368700617985045clip-0)">Male</text></g><g style="stroke-width: 1.0;stroke: rgb(255,255,85);stroke-opacity: 1.0;stroke-linecap: square;stroke-linejoin: bevel;shape-rendering:geometricPrecision;; fill: none" transform="matrix(1,0,0,1,0,0)" clip-path="url(#368700617985045clip-0)"><path d="M 599.9 588.02 L 613.9 588.02"/></g><g transform="matrix(1,0,0,1,0,0)"><text x="617.9" y="592.17" style="fill: rgb(64,64,64); fill-opacity: 1.0; font-family: sans-serif; font-size: 12px; " clip-path="url(#368700617985045clip-0)">Female</text></g><rect x="62" y="10" width="926" height="536" style="fill: rgb(192,192,192); fill-opacity: 1.0" transform="matrix(1,0,0,1,0,0)" clip-path="url(#368700617985045clip-0)"/><line x1="62" y1="550" x2="988" y2="550" style="stroke-width: 0.5;stroke: rgb(128,128,128);stroke-opacity: 1.0;stroke-linecap: square;shape-rendering:crispEdges;" transform="matrix(1,0,0,1,0,0)" clip-path="url(#368700617985045clip-0)"/><line x1="148.81" y1="550" x2="148.81" y2="550" style="stroke-width: 0.5;stroke: rgb(128,128,128);stroke-opacity: 1.0;stroke-linecap: square;shape-rendering:crispEdges;" transform="matrix(1,0,0,1,0,0)" clip-path="url(#368700617985045clip-0)"/><line x1="148.81" y1="550" x2="148.81" y2="552" style="stroke-width: 0.5;stroke: rgb(128,128,128);stroke-opacity: 1.0;stroke-linecap: square;shape-rendering:crispEdges;" transform="matrix(1,0,0,1,0,0)" clip-path="url(#368700617985045clip-0)"/><line x1="256.29" y1="550" x2="256.29" y2="550" style="stroke-width: 0.5;stroke: rgb(128,128,128);stroke-opacity: 1.0;stroke-linecap: square;shape-rendering:crispEdges;" transform="matrix(1,0,0,1,0,0)" clip-path="url(#368700617985045clip-0)"/><line x1="256.29" y1="550" x2="256.29" y2="552" style="stroke-width: 0.5;stroke: rgb(128,128,128);stroke-opacity: 1.0;stroke-linecap: square;shape-rendering:crispEdges;" transform="matrix(1,0,0,1,0,0)" clip-path="url(#368700617985045clip-0)"/><line x1="363.78" y1="550" x2="363.78" y2="550" style="stroke-width: 0.5;stroke: rgb(128,128,128);stroke-opacity: 1.0;stroke-linecap: square;shape-rendering:crispEdges;" transform="matrix(1,0,0,1,0,0)" clip-path="url(#368700617985045clip-0)"/><line x1="363.78" y1="550" x2="363.78" y2="552" style="stroke-width: 0.5;stroke: rgb(128,128,128);stroke-opacity: 1.0;stroke-linecap: square;shape-rendering:crispEdges;" transform="matrix(1,0,0,1,0,0)" clip-path="url(#368700617985045clip-0)"/><line x1="471.26" y1="550" x2="471.26" y2="550" style="stroke-width: 0.5;stroke: rgb(128,128,128);stroke-opacity: 1.0;stroke-linecap: square;shape-rendering:crispEdges;" transform="matrix(1,0,0,1,0,0)" clip-path="url(#368700617985045clip-0)"/><line x1="471.26" y1="550" x2="471.26" y2="552" style="stroke-width: 0.5;stroke: rgb(128,128,128);stroke-opacity: 1.0;stroke-linecap: square;shape-rendering:crispEdges;" transform="matrix(1,0,0,1,0,0)" clip-path="url(#368700617985045clip-0)"/><line x1="578.74" y1="550" x2="578.74" y2="550" style="stroke-width: 0.5;stroke: rgb(128,128,128);stroke-opacity: 1.0;stroke-linecap: square;shape-rendering:crispEdges;" transform="matrix(1,0,0,1,0,0)" clip-path="url(#368700617985045clip-0)"/><line x1="578.74" y1="550" x2="578.74" y2="552" style="stroke-width: 0.5;stroke: rgb(128,128,128);stroke-opacity: 1.0;stroke-linecap: square;shape-rendering:crispEdges;" transform="matrix(1,0,0,1,0,0)" clip-path="url(#368700617985045clip-0)"/><line x1="686.22" y1="550" x2="686.22" y2="550" style="stroke-width: 0.5;stroke: rgb(128,128,128);stroke-opacity: 1.0;stroke-linecap: square;shape-rendering:crispEdges;" transform="matrix(1,0,0,1,0,0)" clip-path="url(#368700617985045clip-0)"/><line x1="686.22" y1="550" x2="686.22" y2="552" style="stroke-width: 0.5;stroke: rgb(128,128,128);stroke-opacity: 1.0;stroke-linecap: square;shape-rendering:crispEdges;" transform="matrix(1,0,0,1,0,0)" clip-path="url(#368700617985045clip-0)"/><line x1="793.71" y1="550" x2="793.71" y2="550" style="stroke-width: 0.5;stroke: rgb(128,128,128);stroke-opacity: 1.0;stroke-linecap: square;shape-rendering:crispEdges;" transform="matrix(1,0,0,1,0,0)" clip-path="url(#368700617985045clip-0)"/><line x1="793.71" y1="550" x2="793.71" y2="552" style="stroke-width: 0.5;stroke: rgb(128,128,128);stroke-opacity: 1.0;stroke-linecap: square;shape-rendering:crispEdges;" transform="matrix(1,0,0,1,0,0)" clip-path="url(#368700617985045clip-0)"/><line x1="901.19" y1="550" x2="901.19" y2="550" style="stroke-width: 0.5;stroke: rgb(128,128,128);stroke-opacity: 1.0;stroke-linecap: square;shape-rendering:crispEdges;" transform="matrix(1,0,0,1,0,0)" clip-path="url(#368700617985045clip-0)"/><line x1="901.19" y1="550" x2="901.19" y2="552" style="stroke-width: 0.5;stroke: rgb(128,128,128);stroke-opacity: 1.0;stroke-linecap: square;shape-rendering:crispEdges;" transform="matrix(1,0,0,1,0,0)" clip-path="url(#368700617985045clip-0)"/><g transform="matrix(1,0,0,1,0,0)"><text x="135.45" y="567.14" style="fill: rgb(64,64,64); fill-opacity: 1.0; font-family: sans-serif; font-size: 12px; " clip-path="url(#368700617985045clip-0)">16.0</text></g><g transform="matrix(1,0,0,1,0,0)"><text x="242.94" y="567.14" style="fill: rgb(64,64,64); fill-opacity: 1.0; font-family: sans-serif; font-size: 12px; " clip-path="url(#368700617985045clip-0)">22.0</text></g><g transform="matrix(1,0,0,1,0,0)"><text x="350.42" y="567.14" style="fill: rgb(64,64,64); fill-opacity: 1.0; font-family: sans-serif; font-size: 12px; " clip-path="url(#368700617985045clip-0)">27.0</text></g><g transform="matrix(1,0,0,1,0,0)"><text x="457.9" y="567.14" style="fill: rgb(64,64,64); fill-opacity: 1.0; font-family: sans-serif; font-size: 12px; " clip-path="url(#368700617985045clip-0)">32.0</text></g><g transform="matrix(1,0,0,1,0,0)"><text x="565.38" y="567.14" style="fill: rgb(64,64,64); fill-opacity: 1.0; font-family: sans-serif; font-size: 12px; " clip-path="url(#368700617985045clip-0)">37.0</text></g><g transform="matrix(1,0,0,1,0,0)"><text x="672.86" y="567.14" style="fill: rgb(64,64,64); fill-opacity: 1.0; font-family: sans-serif; font-size: 12px; " clip-path="url(#368700617985045clip-0)">44.5</text></g><g transform="matrix(1,0,0,1,0,0)"><text x="780.35" y="567.14" style="fill: rgb(64,64,64); fill-opacity: 1.0; font-family: sans-serif; font-size: 12px; " clip-path="url(#368700617985045clip-0)">54.5</text></g><g transform="matrix(1,0,0,1,0,0)"><text x="887.83" y="567.14" style="fill: rgb(64,64,64); fill-opacity: 1.0; font-family: sans-serif; font-size: 12px; " clip-path="url(#368700617985045clip-0)">65.0</text></g><line x1="58" y1="10" x2="58" y2="546" style="stroke-width: 0.5;stroke: rgb(128,128,128);stroke-opacity: 1.0;stroke-linecap: square;shape-rendering:crispEdges;" transform="matrix(1,0,0,1,0,0)" clip-path="url(#368700617985045clip-0)"/><g transform="matrix(1,0,0,1,0,0)"><text x="44.37" y="550.15" style="fill: rgb(64,64,64); fill-opacity: 1.0; font-family: sans-serif; font-size: 12px; " clip-path="url(#368700617985045clip-0)">0</text></g><line x1="56" y1="546" x2="58" y2="546" style="stroke-width: 0.5;stroke: rgb(128,128,128);stroke-opacity: 1.0;stroke-linecap: square;shape-rendering:crispEdges;" transform="matrix(1,0,0,1,0,0)" clip-path="url(#368700617985045clip-0)"/><g transform="matrix(1,0,0,1,0,0)"><text x="29.1" y="526.21" style="fill: rgb(64,64,64); fill-opacity: 1.0; font-family: sans-serif; font-size: 12px; " clip-path="url(#368700617985045clip-0)">500</text></g><line x1="56" y1="522.06" x2="58" y2="522.06" style="stroke-width: 0.5;stroke: rgb(128,128,128);stroke-opacity: 1.0;stroke-linecap: square;shape-rendering:crispEdges;" transform="matrix(1,0,0,1,0,0)" clip-path="url(#368700617985045clip-0)"/><g transform="matrix(1,0,0,1,0,0)"><text x="17.65" y="502.27" style="fill: rgb(64,64,64); fill-opacity: 1.0; font-family: sans-serif; font-size: 12px; " clip-path="url(#368700617985045clip-0)">1,000</text></g><line x1="56" y1="498.12" x2="58" y2="498.12" style="stroke-width: 0.5;stroke: rgb(128,128,128);stroke-opacity: 1.0;stroke-linecap: square;shape-rendering:crispEdges;" transform="matrix(1,0,0,1,0,0)" clip-path="url(#368700617985045clip-0)"/><g transform="matrix(1,0,0,1,0,0)"><text x="17.65" y="478.33" style="fill: rgb(64,64,64); fill-opacity: 1.0; font-family: sans-serif; font-size: 12px; " clip-path="url(#368700617985045clip-0)">1,500</text></g><line x1="56" y1="474.18" x2="58" y2="474.18" style="stroke-width: 0.5;stroke: rgb(128,128,128);stroke-opacity: 1.0;stroke-linecap: square;shape-rendering:crispEdges;" transform="matrix(1,0,0,1,0,0)" clip-path="url(#368700617985045clip-0)"/><g transform="matrix(1,0,0,1,0,0)"><text x="17.65" y="454.39" style="fill: rgb(64,64,64); fill-opacity: 1.0; font-family: sans-serif; font-size: 12px; " clip-path="url(#368700617985045clip-0)">2,000</text></g><line x1="56" y1="450.23" x2="58" y2="450.23" style="stroke-width: 0.5;stroke: rgb(128,128,128);stroke-opacity: 1.0;stroke-linecap: square;shape-rendering:crispEdges;" transform="matrix(1,0,0,1,0,0)" clip-path="url(#368700617985045clip-0)"/><g transform="matrix(1,0,0,1,0,0)"><text x="17.65" y="430.45" style="fill: rgb(64,64,64); fill-opacity: 1.0; font-family: sans-serif; font-size: 12px; " clip-path="url(#368700617985045clip-0)">2,500</text></g><line x1="56" y1="426.29" x2="58" y2="426.29" style="stroke-width: 0.5;stroke: rgb(128,128,128);stroke-opacity: 1.0;stroke-linecap: square;shape-rendering:crispEdges;" transform="matrix(1,0,0,1,0,0)" clip-path="url(#368700617985045clip-0)"/><g transform="matrix(1,0,0,1,0,0)"><text x="17.65" y="406.51" style="fill: rgb(64,64,64); fill-opacity: 1.0; font-family: sans-serif; font-size: 12px; " clip-path="url(#368700617985045clip-0)">3,000</text></g><line x1="56" y1="402.35" x2="58" y2="402.35" style="stroke-width: 0.5;stroke: rgb(128,128,128);stroke-opacity: 1.0;stroke-linecap: square;shape-rendering:crispEdges;" transform="matrix(1,0,0,1,0,0)" clip-path="url(#368700617985045clip-0)"/><g transform="matrix(1,0,0,1,0,0)"><text x="17.65" y="382.57" style="fill: rgb(64,64,64); fill-opacity: 1.0; font-family: sans-serif; font-size: 12px; " clip-path="url(#368700617985045clip-0)">3,500</text></g><line x1="56" y1="378.41" x2="58" y2="378.41" style="stroke-width: 0.5;stroke: rgb(128,128,128);stroke-opacity: 1.0;stroke-linecap: square;shape-rendering:crispEdges;" transform="matrix(1,0,0,1,0,0)" clip-path="url(#368700617985045clip-0)"/><g transform="matrix(1,0,0,1,0,0)"><text x="17.65" y="358.62" style="fill: rgb(64,64,64); fill-opacity: 1.0; font-family: sans-serif; font-size: 12px; " clip-path="url(#368700617985045clip-0)">4,000</text></g><line x1="56" y1="354.47" x2="58" y2="354.47" style="stroke-width: 0.5;stroke: rgb(128,128,128);stroke-opacity: 1.0;stroke-linecap: square;shape-rendering:crispEdges;" transform="matrix(1,0,0,1,0,0)" clip-path="url(#368700617985045clip-0)"/><g transform="matrix(1,0,0,1,0,0)"><text x="17.65" y="334.68" style="fill: rgb(64,64,64); fill-opacity: 1.0; font-family: sans-serif; font-size: 12px; " clip-path="url(#368700617985045clip-0)">4,500</text></g><line x1="56" y1="330.53" x2="58" y2="330.53" style="stroke-width: 0.5;stroke: rgb(128,128,128);stroke-opacity: 1.0;stroke-linecap: square;shape-rendering:crispEdges;" transform="matrix(1,0,0,1,0,0)" clip-path="url(#368700617985045clip-0)"/><g transform="matrix(1,0,0,1,0,0)"><text x="17.65" y="310.74" style="fill: rgb(64,64,64); fill-opacity: 1.0; font-family: sans-serif; font-size: 12px; " clip-path="url(#368700617985045clip-0)">5,000</text></g><line x1="56" y1="306.59" x2="58" y2="306.59" style="stroke-width: 0.5;stroke: rgb(128,128,128);stroke-opacity: 1.0;stroke-linecap: square;shape-rendering:crispEdges;" transform="matrix(1,0,0,1,0,0)" clip-path="url(#368700617985045clip-0)"/><g transform="matrix(1,0,0,1,0,0)"><text x="17.65" y="286.8" style="fill: rgb(64,64,64); fill-opacity: 1.0; font-family: sans-serif; font-size: 12px; " clip-path="url(#368700617985045clip-0)">5,500</text></g><line x1="56" y1="282.65" x2="58" y2="282.65" style="stroke-width: 0.5;stroke: rgb(128,128,128);stroke-opacity: 1.0;stroke-linecap: square;shape-rendering:crispEdges;" transform="matrix(1,0,0,1,0,0)" clip-path="url(#368700617985045clip-0)"/><g transform="matrix(1,0,0,1,0,0)"><text x="17.65" y="262.86" style="fill: rgb(64,64,64); fill-opacity: 1.0; font-family: sans-serif; font-size: 12px; " clip-path="url(#368700617985045clip-0)">6,000</text></g><line x1="56" y1="258.7" x2="58" y2="258.7" style="stroke-width: 0.5;stroke: rgb(128,128,128);stroke-opacity: 1.0;stroke-linecap: square;shape-rendering:crispEdges;" transform="matrix(1,0,0,1,0,0)" clip-path="url(#368700617985045clip-0)"/><g transform="matrix(1,0,0,1,0,0)"><text x="17.65" y="238.92" style="fill: rgb(64,64,64); fill-opacity: 1.0; font-family: sans-serif; font-size: 12px; " clip-path="url(#368700617985045clip-0)">6,500</text></g><line x1="56" y1="234.76" x2="58" y2="234.76" style="stroke-width: 0.5;stroke: rgb(128,128,128);stroke-opacity: 1.0;stroke-linecap: square;shape-rendering:crispEdges;" transform="matrix(1,0,0,1,0,0)" clip-path="url(#368700617985045clip-0)"/><g transform="matrix(1,0,0,1,0,0)"><text x="17.65" y="214.98" style="fill: rgb(64,64,64); fill-opacity: 1.0; font-family: sans-serif; font-size: 12px; " clip-path="url(#368700617985045clip-0)">7,000</text></g><line x1="56" y1="210.82" x2="58" y2="210.82" style="stroke-width: 0.5;stroke: rgb(128,128,128);stroke-opacity: 1.0;stroke-linecap: square;shape-rendering:crispEdges;" transform="matrix(1,0,0,1,0,0)" clip-path="url(#368700617985045clip-0)"/><g transform="matrix(1,0,0,1,0,0)"><text x="17.65" y="191.03" style="fill: rgb(64,64,64); fill-opacity: 1.0; font-family: sans-serif; font-size: 12px; " clip-path="url(#368700617985045clip-0)">7,500</text></g><line x1="56" y1="186.88" x2="58" y2="186.88" style="stroke-width: 0.5;stroke: rgb(128,128,128);stroke-opacity: 1.0;stroke-linecap: square;shape-rendering:crispEdges;" transform="matrix(1,0,0,1,0,0)" clip-path="url(#368700617985045clip-0)"/><g transform="matrix(1,0,0,1,0,0)"><text x="17.65" y="167.09" style="fill: rgb(64,64,64); fill-opacity: 1.0; font-family: sans-serif; font-size: 12px; " clip-path="url(#368700617985045clip-0)">8,000</text></g><line x1="56" y1="162.94" x2="58" y2="162.94" style="stroke-width: 0.5;stroke: rgb(128,128,128);stroke-opacity: 1.0;stroke-linecap: square;shape-rendering:crispEdges;" transform="matrix(1,0,0,1,0,0)" clip-path="url(#368700617985045clip-0)"/><g transform="matrix(1,0,0,1,0,0)"><text x="17.65" y="143.15" style="fill: rgb(64,64,64); fill-opacity: 1.0; font-family: sans-serif; font-size: 12px; " clip-path="url(#368700617985045clip-0)">8,500</text></g><line x1="56" y1="139" x2="58" y2="139" style="stroke-width: 0.5;stroke: rgb(128,128,128);stroke-opacity: 1.0;stroke-linecap: square;shape-rendering:crispEdges;" transform="matrix(1,0,0,1,0,0)" clip-path="url(#368700617985045clip-0)"/><g transform="matrix(1,0,0,1,0,0)"><text x="17.65" y="119.21" style="fill: rgb(64,64,64); fill-opacity: 1.0; font-family: sans-serif; font-size: 12px; " clip-path="url(#368700617985045clip-0)">9,000</text></g><line x1="56" y1="115.06" x2="58" y2="115.06" style="stroke-width: 0.5;stroke: rgb(128,128,128);stroke-opacity: 1.0;stroke-linecap: square;shape-rendering:crispEdges;" transform="matrix(1,0,0,1,0,0)" clip-path="url(#368700617985045clip-0)"/><g transform="matrix(1,0,0,1,0,0)"><text x="17.65" y="95.27" style="fill: rgb(64,64,64); fill-opacity: 1.0; font-family: sans-serif; font-size: 12px; " clip-path="url(#368700617985045clip-0)">9,500</text></g><line x1="56" y1="91.12" x2="58" y2="91.12" style="stroke-width: 0.5;stroke: rgb(128,128,128);stroke-opacity: 1.0;stroke-linecap: square;shape-rendering:crispEdges;" transform="matrix(1,0,0,1,0,0)" clip-path="url(#368700617985045clip-0)"/><g transform="matrix(1,0,0,1,0,0)"><text x="10.01" y="71.33" style="fill: rgb(64,64,64); fill-opacity: 1.0; font-family: sans-serif; font-size: 12px; " clip-path="url(#368700617985045clip-0)">10,000</text></g><line x1="56" y1="67.17" x2="58" y2="67.17" style="stroke-width: 0.5;stroke: rgb(128,128,128);stroke-opacity: 1.0;stroke-linecap: square;shape-rendering:crispEdges;" transform="matrix(1,0,0,1,0,0)" clip-path="url(#368700617985045clip-0)"/><g transform="matrix(1,0,0,1,0,0)"><text x="10.01" y="47.39" style="fill: rgb(64,64,64); fill-opacity: 1.0; font-family: sans-serif; font-size: 12px; " clip-path="url(#368700617985045clip-0)">10,500</text></g><line x1="56" y1="43.23" x2="58" y2="43.23" style="stroke-width: 0.5;stroke: rgb(128,128,128);stroke-opacity: 1.0;stroke-linecap: square;shape-rendering:crispEdges;" transform="matrix(1,0,0,1,0,0)" clip-path="url(#368700617985045clip-0)"/><g transform="matrix(1,0,0,1,0,0)"><text x="10.01" y="23.45" style="fill: rgb(64,64,64); fill-opacity: 1.0; font-family: sans-serif; font-size: 12px; " clip-path="url(#368700617985045clip-0)">11,000</text></g><line x1="56" y1="19.29" x2="58" y2="19.29" style="stroke-width: 0.5;stroke: rgb(128,128,128);stroke-opacity: 1.0;stroke-linecap: square;shape-rendering:crispEdges;" transform="matrix(1,0,0,1,0,0)" clip-path="url(#368700617985045clip-0)"/><line x1="62" y1="546" x2="988" y2="546" style="stroke-width: 0.5;stroke: rgb(255,255,255);stroke-opacity: 1.0;stroke-linejoin: bevel;stroke-dasharray: 2.0, 2.0;shape-rendering:crispEdges;" transform="matrix(1,0,0,1,0,0)" clip-path="url(#368700617985045clip-1)"/><line x1="62" y1="522.06" x2="988" y2="522.06" style="stroke-width: 0.5;stroke: rgb(255,255,255);stroke-opacity: 1.0;stroke-linejoin: bevel;stroke-dasharray: 2.0, 2.0;shape-rendering:crispEdges;" transform="matrix(1,0,0,1,0,0)" clip-path="url(#368700617985045clip-1)"/><line x1="62" y1="498.12" x2="988" y2="498.12" style="stroke-width: 0.5;stroke: rgb(255,255,255);stroke-opacity: 1.0;stroke-linejoin: bevel;stroke-dasharray: 2.0, 2.0;shape-rendering:crispEdges;" transform="matrix(1,0,0,1,0,0)" clip-path="url(#368700617985045clip-1)"/><line x1="62" y1="474.18" x2="988" y2="474.18" style="stroke-width: 0.5;stroke: rgb(255,255,255);stroke-opacity: 1.0;stroke-linejoin: bevel;stroke-dasharray: 2.0, 2.0;shape-rendering:crispEdges;" transform="matrix(1,0,0,1,0,0)" clip-path="url(#368700617985045clip-1)"/><line x1="62" y1="450.23" x2="988" y2="450.23" style="stroke-width: 0.5;stroke: rgb(255,255,255);stroke-opacity: 1.0;stroke-linejoin: bevel;stroke-dasharray: 2.0, 2.0;shape-rendering:crispEdges;" transform="matrix(1,0,0,1,0,0)" clip-path="url(#368700617985045clip-1)"/><line x1="62" y1="426.29" x2="988" y2="426.29" style="stroke-width: 0.5;stroke: rgb(255,255,255);stroke-opacity: 1.0;stroke-linejoin: bevel;stroke-dasharray: 2.0, 2.0;shape-rendering:crispEdges;" transform="matrix(1,0,0,1,0,0)" clip-path="url(#368700617985045clip-1)"/><line x1="62" y1="402.35" x2="988" y2="402.35" style="stroke-width: 0.5;stroke: rgb(255,255,255);stroke-opacity: 1.0;stroke-linejoin: bevel;stroke-dasharray: 2.0, 2.0;shape-rendering:crispEdges;" transform="matrix(1,0,0,1,0,0)" clip-path="url(#368700617985045clip-1)"/><line x1="62" y1="378.41" x2="988" y2="378.41" style="stroke-width: 0.5;stroke: rgb(255,255,255);stroke-opacity: 1.0;stroke-linejoin: bevel;stroke-dasharray: 2.0, 2.0;shape-rendering:crispEdges;" transform="matrix(1,0,0,1,0,0)" clip-path="url(#368700617985045clip-1)"/><line x1="62" y1="354.47" x2="988" y2="354.47" style="stroke-width: 0.5;stroke: rgb(255,255,255);stroke-opacity: 1.0;stroke-linejoin: bevel;stroke-dasharray: 2.0, 2.0;shape-rendering:crispEdges;" transform="matrix(1,0,0,1,0,0)" clip-path="url(#368700617985045clip-1)"/><line x1="62" y1="330.53" x2="988" y2="330.53" style="stroke-width: 0.5;stroke: rgb(255,255,255);stroke-opacity: 1.0;stroke-linejoin: bevel;stroke-dasharray: 2.0, 2.0;shape-rendering:crispEdges;" transform="matrix(1,0,0,1,0,0)" clip-path="url(#368700617985045clip-1)"/><line x1="62" y1="306.59" x2="988" y2="306.59" style="stroke-width: 0.5;stroke: rgb(255,255,255);stroke-opacity: 1.0;stroke-linejoin: bevel;stroke-dasharray: 2.0, 2.0;shape-rendering:crispEdges;" transform="matrix(1,0,0,1,0,0)" clip-path="url(#368700617985045clip-1)"/><line x1="62" y1="282.65" x2="988" y2="282.65" style="stroke-width: 0.5;stroke: rgb(255,255,255);stroke-opacity: 1.0;stroke-linejoin: bevel;stroke-dasharray: 2.0, 2.0;shape-rendering:crispEdges;" transform="matrix(1,0,0,1,0,0)" clip-path="url(#368700617985045clip-1)"/><line x1="62" y1="258.7" x2="988" y2="258.7" style="stroke-width: 0.5;stroke: rgb(255,255,255);stroke-opacity: 1.0;stroke-linejoin: bevel;stroke-dasharray: 2.0, 2.0;shape-rendering:crispEdges;" transform="matrix(1,0,0,1,0,0)" clip-path="url(#368700617985045clip-1)"/><line x1="62" y1="234.76" x2="988" y2="234.76" style="stroke-width: 0.5;stroke: rgb(255,255,255);stroke-opacity: 1.0;stroke-linejoin: bevel;stroke-dasharray: 2.0, 2.0;shape-rendering:crispEdges;" transform="matrix(1,0,0,1,0,0)" clip-path="url(#368700617985045clip-1)"/><line x1="62" y1="210.82" x2="988" y2="210.82" style="stroke-width: 0.5;stroke: rgb(255,255,255);stroke-opacity: 1.0;stroke-linejoin: bevel;stroke-dasharray: 2.0, 2.0;shape-rendering:crispEdges;" transform="matrix(1,0,0,1,0,0)" clip-path="url(#368700617985045clip-1)"/><line x1="62" y1="186.88" x2="988" y2="186.88" style="stroke-width: 0.5;stroke: rgb(255,255,255);stroke-opacity: 1.0;stroke-linejoin: bevel;stroke-dasharray: 2.0, 2.0;shape-rendering:crispEdges;" transform="matrix(1,0,0,1,0,0)" clip-path="url(#368700617985045clip-1)"/><line x1="62" y1="162.94" x2="988" y2="162.94" style="stroke-width: 0.5;stroke: rgb(255,255,255);stroke-opacity: 1.0;stroke-linejoin: bevel;stroke-dasharray: 2.0, 2.0;shape-rendering:crispEdges;" transform="matrix(1,0,0,1,0,0)" clip-path="url(#368700617985045clip-1)"/><line x1="62" y1="139" x2="988" y2="139" style="stroke-width: 0.5;stroke: rgb(255,255,255);stroke-opacity: 1.0;stroke-linejoin: bevel;stroke-dasharray: 2.0, 2.0;shape-rendering:crispEdges;" transform="matrix(1,0,0,1,0,0)" clip-path="url(#368700617985045clip-1)"/><line x1="62" y1="115.06" x2="988" y2="115.06" style="stroke-width: 0.5;stroke: rgb(255,255,255);stroke-opacity: 1.0;stroke-linejoin: bevel;stroke-dasharray: 2.0, 2.0;shape-rendering:crispEdges;" transform="matrix(1,0,0,1,0,0)" clip-path="url(#368700617985045clip-1)"/><line x1="62" y1="91.12" x2="988" y2="91.12" style="stroke-width: 0.5;stroke: rgb(255,255,255);stroke-opacity: 1.0;stroke-linejoin: bevel;stroke-dasharray: 2.0, 2.0;shape-rendering:crispEdges;" transform="matrix(1,0,0,1,0,0)" clip-path="url(#368700617985045clip-1)"/><line x1="62" y1="67.17" x2="988" y2="67.17" style="stroke-width: 0.5;stroke: rgb(255,255,255);stroke-opacity: 1.0;stroke-linejoin: bevel;stroke-dasharray: 2.0, 2.0;shape-rendering:crispEdges;" transform="matrix(1,0,0,1,0,0)" clip-path="url(#368700617985045clip-1)"/><line x1="62" y1="43.23" x2="988" y2="43.23" style="stroke-width: 0.5;stroke: rgb(255,255,255);stroke-opacity: 1.0;stroke-linejoin: bevel;stroke-dasharray: 2.0, 2.0;shape-rendering:crispEdges;" transform="matrix(1,0,0,1,0,0)" clip-path="url(#368700617985045clip-1)"/><line x1="62" y1="19.29" x2="988" y2="19.29" style="stroke-width: 0.5;stroke: rgb(255,255,255);stroke-opacity: 1.0;stroke-linejoin: bevel;stroke-dasharray: 2.0, 2.0;shape-rendering:crispEdges;" transform="matrix(1,0,0,1,0,0)" clip-path="url(#368700617985045clip-1)"/><line x1="148.81" y1="545.81" x2="256.29" y2="543.99" style="stroke-width: 1.0;stroke: rgb(255,85,85);stroke-opacity: 1.0;stroke-linecap: square;stroke-linejoin: bevel;shape-rendering:geometricPrecision;" transform="matrix(1,0,0,1,0,0)" clip-path="url(#368700617985045clip-1)"/><line x1="148.81" y1="545.81" x2="256.29" y2="544.9" style="stroke-width: 1.0;stroke: rgb(85,85,255);stroke-opacity: 1.0;stroke-linecap: square;stroke-linejoin: bevel;shape-rendering:geometricPrecision;" transform="matrix(1,0,0,1,0,0)" clip-path="url(#368700617985045clip-1)"/><line x1="148.81" y1="518.8" x2="256.29" y2="236.58" style="stroke-width: 1.0;stroke: rgb(85,255,85);stroke-opacity: 1.0;stroke-linecap: square;stroke-linejoin: bevel;shape-rendering:geometricPrecision;" transform="matrix(1,0,0,1,0,0)" clip-path="url(#368700617985045clip-1)"/><line x1="148.81" y1="544.8" x2="256.29" y2="521.72" style="stroke-width: 1.0;stroke: rgb(255,255,85);stroke-opacity: 1.0;stroke-linecap: square;stroke-linejoin: bevel;shape-rendering:geometricPrecision;" transform="matrix(1,0,0,1,0,0)" clip-path="url(#368700617985045clip-1)"/><line x1="256.29" y1="543.99" x2="363.78" y2="542.7" style="stroke-width: 1.0;stroke: rgb(255,85,85);stroke-opacity: 1.0;stroke-linecap: square;stroke-linejoin: bevel;shape-rendering:geometricPrecision;" transform="matrix(1,0,0,1,0,0)" clip-path="url(#368700617985045clip-1)"/><line x1="256.29" y1="544.9" x2="363.78" y2="544.76" style="stroke-width: 1.0;stroke: rgb(85,85,255);stroke-opacity: 1.0;stroke-linecap: square;stroke-linejoin: bevel;shape-rendering:geometricPrecision;" transform="matrix(1,0,0,1,0,0)" clip-path="url(#368700617985045clip-1)"/><line x1="256.29" y1="236.58" x2="363.78" y2="35.52" style="stroke-width: 1.0;stroke: rgb(85,255,85);stroke-opacity: 1.0;stroke-linecap: square;stroke-linejoin: bevel;shape-rendering:geometricPrecision;" transform="matrix(1,0,0,1,0,0)" clip-path="url(#368700617985045clip-1)"/><line x1="256.29" y1="521.72" x2="363.78" y2="511.09" style="stroke-width: 1.0;stroke: rgb(255,255,85);stroke-opacity: 1.0;stroke-linecap: square;stroke-linejoin: bevel;shape-rendering:geometricPrecision;" transform="matrix(1,0,0,1,0,0)" clip-path="url(#368700617985045clip-1)"/><line x1="363.78" y1="542.7" x2="471.26" y2="543.17" style="stroke-width: 1.0;stroke: rgb(255,85,85);stroke-opacity: 1.0;stroke-linecap: square;stroke-linejoin: bevel;shape-rendering:geometricPrecision;" transform="matrix(1,0,0,1,0,0)" clip-path="url(#368700617985045clip-1)"/><line x1="363.78" y1="544.76" x2="471.26" y2="544.99" style="stroke-width: 1.0;stroke: rgb(85,85,255);stroke-opacity: 1.0;stroke-linecap: square;stroke-linejoin: bevel;shape-rendering:geometricPrecision;" transform="matrix(1,0,0,1,0,0)" clip-path="url(#368700617985045clip-1)"/><line x1="363.78" y1="35.52" x2="471.26" y2="192.82" style="stroke-width: 1.0;stroke: rgb(85,255,85);stroke-opacity: 1.0;stroke-linecap: square;stroke-linejoin: bevel;shape-rendering:geometricPrecision;" transform="matrix(1,0,0,1,0,0)" clip-path="url(#368700617985045clip-1)"/><line x1="363.78" y1="511.09" x2="471.26" y2="528.33" style="stroke-width: 1.0;stroke: rgb(255,255,85);stroke-opacity: 1.0;stroke-linecap: square;stroke-linejoin: bevel;shape-rendering:geometricPrecision;" transform="matrix(1,0,0,1,0,0)" clip-path="url(#368700617985045clip-1)"/><line x1="471.26" y1="543.17" x2="578.74" y2="543.85" style="stroke-width: 1.0;stroke: rgb(255,85,85);stroke-opacity: 1.0;stroke-linecap: square;stroke-linejoin: bevel;shape-rendering:geometricPrecision;" transform="matrix(1,0,0,1,0,0)" clip-path="url(#368700617985045clip-1)"/><line x1="471.26" y1="544.99" x2="578.74" y2="545.43" style="stroke-width: 1.0;stroke: rgb(85,85,255);stroke-opacity: 1.0;stroke-linecap: square;stroke-linejoin: bevel;shape-rendering:geometricPrecision;" transform="matrix(1,0,0,1,0,0)" clip-path="url(#368700617985045clip-1)"/><line x1="471.26" y1="192.82" x2="578.74" y2="341.59" style="stroke-width: 1.0;stroke: rgb(85,255,85);stroke-opacity: 1.0;stroke-linecap: square;stroke-linejoin: bevel;shape-rendering:geometricPrecision;" transform="matrix(1,0,0,1,0,0)" clip-path="url(#368700617985045clip-1)"/><line x1="471.26" y1="528.33" x2="578.74" y2="537.96" style="stroke-width: 1.0;stroke: rgb(255,255,85);stroke-opacity: 1.0;stroke-linecap: square;stroke-linejoin: bevel;shape-rendering:geometricPrecision;" transform="matrix(1,0,0,1,0,0)" clip-path="url(#368700617985045clip-1)"/><line x1="578.74" y1="543.85" x2="686.22" y2="544.04" style="stroke-width: 1.0;stroke: rgb(255,85,85);stroke-opacity: 1.0;stroke-linecap: square;stroke-linejoin: bevel;shape-rendering:geometricPrecision;" transform="matrix(1,0,0,1,0,0)" clip-path="url(#368700617985045clip-1)"/><line x1="578.74" y1="545.43" x2="686.22" y2="545.57" style="stroke-width: 1.0;stroke: rgb(85,85,255);stroke-opacity: 1.0;stroke-linecap: square;stroke-linejoin: bevel;shape-rendering:geometricPrecision;" transform="matrix(1,0,0,1,0,0)" clip-path="url(#368700617985045clip-1)"/><line x1="578.74" y1="341.59" x2="686.22" y2="369.5" style="stroke-width: 1.0;stroke: rgb(85,255,85);stroke-opacity: 1.0;stroke-linecap: square;stroke-linejoin: bevel;shape-rendering:geometricPrecision;" transform="matrix(1,0,0,1,0,0)" clip-path="url(#368700617985045clip-1)"/><line x1="578.74" y1="537.96" x2="686.22" y2="538.29" style="stroke-width: 1.0;stroke: rgb(255,255,85);stroke-opacity: 1.0;stroke-linecap: square;stroke-linejoin: bevel;shape-rendering:geometricPrecision;" transform="matrix(1,0,0,1,0,0)" clip-path="url(#368700617985045clip-1)"/><line x1="686.22" y1="544.04" x2="793.71" y2="545.47" style="stroke-width: 1.0;stroke: rgb(255,85,85);stroke-opacity: 1.0;stroke-linecap: square;stroke-linejoin: bevel;shape-rendering:geometricPrecision;" transform="matrix(1,0,0,1,0,0)" clip-path="url(#368700617985045clip-1)"/><line x1="686.22" y1="545.57" x2="793.71" y2="545.9" style="stroke-width: 1.0;stroke: rgb(85,85,255);stroke-opacity: 1.0;stroke-linecap: square;stroke-linejoin: bevel;shape-rendering:geometricPrecision;" transform="matrix(1,0,0,1,0,0)" clip-path="url(#368700617985045clip-1)"/><line x1="686.22" y1="369.5" x2="793.71" y2="488.92" style="stroke-width: 1.0;stroke: rgb(85,255,85);stroke-opacity: 1.0;stroke-linecap: square;stroke-linejoin: bevel;shape-rendering:geometricPrecision;" transform="matrix(1,0,0,1,0,0)" clip-path="url(#368700617985045clip-1)"/><line x1="686.22" y1="538.29" x2="793.71" y2="542.55" style="stroke-width: 1.0;stroke: rgb(255,255,85);stroke-opacity: 1.0;stroke-linecap: square;stroke-linejoin: bevel;shape-rendering:geometricPrecision;" transform="matrix(1,0,0,1,0,0)" clip-path="url(#368700617985045clip-1)"/><line x1="793.71" y1="545.47" x2="901.19" y2="545.95" style="stroke-width: 1.0;stroke: rgb(255,85,85);stroke-opacity: 1.0;stroke-linecap: square;stroke-linejoin: bevel;shape-rendering:geometricPrecision;" transform="matrix(1,0,0,1,0,0)" clip-path="url(#368700617985045clip-1)"/><line x1="793.71" y1="545.9" x2="901.19" y2="545.71" style="stroke-width: 1.0;stroke: rgb(85,85,255);stroke-opacity: 1.0;stroke-linecap: square;stroke-linejoin: bevel;shape-rendering:geometricPrecision;" transform="matrix(1,0,0,1,0,0)" clip-path="url(#368700617985045clip-1)"/><line x1="793.71" y1="488.92" x2="901.19" y2="536.42" style="stroke-width: 1.0;stroke: rgb(85,255,85);stroke-opacity: 1.0;stroke-linecap: square;stroke-linejoin: bevel;shape-rendering:geometricPrecision;" transform="matrix(1,0,0,1,0,0)" clip-path="url(#368700617985045clip-1)"/><line x1="793.71" y1="542.55" x2="901.19" y2="545.38" style="stroke-width: 1.0;stroke: rgb(255,255,85);stroke-opacity: 1.0;stroke-linecap: square;stroke-linejoin: bevel;shape-rendering:geometricPrecision;" transform="matrix(1,0,0,1,0,0)" clip-path="url(#368700617985045clip-1)"/><rect x="62" y="10" width="926" height="536" style="stroke-width: 0.5;stroke: rgb(0,0,0);stroke-opacity: 1.0;stroke-linecap: round;stroke-linejoin: round;shape-rendering:crispEdges;; fill: none" transform="matrix(1,0,0,1,0,0)" clip-path="url(#368700617985045clip-0)"/></svg>
