<!DOCTYPE svg PUBLIC "-//W3C//DTD SVG 1.1//EN" "http://www.w3.org/Graphics/SVG/1.1/DTD/svg11.dtd">
<svg xmlns="http://www.w3.org/2000/svg" xmlns:xlink="http://www.w3.org/1999/xlink" xmlns:jfreesvg="http://www.jfree.org/jfreesvg/svg" width="800" height="500" text-rendering="auto" shape-rendering="auto">
<defs><clipPath id="369442212935888clip-0"><path d="M 0 0 L 800 0 L 800 500 L 0 500 L 0 0 Z "/></clipPath>
<clipPath id="369442212935888clip-1"><path d="M 62 10 L 62 446 L 788 446 L 788 10 Z "/></clipPath>
</defs>
<rect x="0" y="0" width="800" height="500" style="fill: rgb(255,255,255); fill-opacity: 1.0" transform="matrix(1,0,0,1,0,0)" clip-path="url(#369442212935888clip-0)"/><rect x="234.06" y="477.03" width="331.89" height="21.97" style="fill: rgb(255,255,255); fill-opacity: 1.0" transform="matrix(1,0,0,1,0,0)" clip-path="url(#369442212935888clip-0)"/><line x1="234.56" y1="477.53" x2="565.44" y2="477.53" style="stroke-width: 1.0;stroke: rgb(0,0,0);stroke-opacity: 1.0;stroke-linecap: square;shape-rendering:crispEdges;" transform="matrix(1,0,0,1,0,0)" clip-path="url(#369442212935888clip-0)"/><line x1="234.56" y1="498.5" x2="565.44" y2="498.5" style="stroke-width: 1.0;stroke: rgb(0,0,0);stroke-opacity: 1.0;stroke-linecap: square;shape-rendering:crispEdges;" transform="matrix(1,0,0,1,0,0)" clip-path="url(#369442212935888clip-0)"/><line x1="234.56" y1="498.5" x2="234.56" y2="477.53" style="stroke-width: 1.0;stroke: rgb(0,0,0);stroke-opacity: 1.0;stroke-linecap: square;shape-rendering:crispEdges;" transform="matrix(1,0,0,1,0,0)" clip-path="url(#369442212935888clip-0)"/><line x1="565.44" y1="498.5" x2="565.44" y2="477.53" style="stroke-width: 1.0;stroke: rgb(0,0,0);stroke-opacity: 1.0;stroke-linecap: square;shape-rendering:crispEdges;" transform="matrix(1,0,0,1,0,0)" clip-path="url(#369442212935888clip-0)"/><g style="stroke-width: 1.0;stroke: rgb(255,85,85);stroke-opacity: 1.0;stroke-linecap: square;stroke-linejoin: bevel;shape-rendering:geometricPrecision;; fill: none" transform="matrix(1,0,0,1,0,0)" clip-path="url(#369442212935888clip-0)"><path d="M 238.06 488.02 L 252.06 488.02"/></g><g transform="matrix(1,0,0,1,0,0)"><text x="256.06" y="492.17" style="fill: rgb(64,64,64); fill-opacity: 1.0; font-family: sans-serif; font-size: 12px; " clip-path="url(#369442212935888clip-0)">Prefer not to disclose</text></g><g style="stroke-width: 1.0;stroke: rgb(85,85,255);stroke-opacity: 1.0;stroke-linecap: square;stroke-linejoin: bevel;shape-rendering:geometricPrecision;; fill: none" transform="matrix(1,0,0,1,0,0)" clip-path="url(#369442212935888clip-0)"><path d="M 389.4 488.02 L 403.4 488.02"/></g><g transform="matrix(1,0,0,1,0,0)"><text x="407.4" y="492.17" style="fill: rgb(64,64,64); fill-opacity: 1.0; font-family: sans-serif; font-size: 12px; " clip-path="url(#369442212935888clip-0)">Other</text></g><g style="stroke-width: 1.0;stroke: rgb(85,255,85);stroke-opacity: 1.0;stroke-linecap: square;stroke-linejoin: bevel;shape-rendering:geometricPrecision;; fill: none" transform="matrix(1,0,0,1,0,0)" clip-path="url(#369442212935888clip-0)"><path d="M 447.48 488.02 L 461.48 488.02"/></g><g transform="matrix(1,0,0,1,0,0)"><text x="465.48" y="492.17" style="fill: rgb(64,64,64); fill-opacity: 1.0; font-family: sans-serif; font-size: 12px; " clip-path="url(#369442212935888clip-0)">Male</text></g><g style="stroke-width: 1.0;stroke: rgb(255,255,85);stroke-opacity: 1.0;stroke-linecap: square;stroke-linejoin: bevel;shape-rendering:geometricPrecision;; fill: none" transform="matrix(1,0,0,1,0,0)" clip-path="url(#369442212935888clip-0)"><path d="M 499.9 488.02 L 513.9 488.02"/></g><g transform="matrix(1,0,0,1,0,0)"><text x="517.9" y="492.17" style="fill: rgb(64,64,64); fill-opacity: 1.0; font-family: sans-serif; font-size: 12px; " clip-path="url(#369442212935888clip-0)">Female</text></g><rect x="62" y="10" width="726" height="436" style="fill: rgb(192,192,192); fill-opacity: 1.0" transform="matrix(1,0,0,1,0,0)" clip-path="url(#369442212935888clip-0)"/><line x1="62" y1="450" x2="788" y2="450" style="stroke-width: 0.5;stroke: rgb(128,128,128);stroke-opacity: 1.0;stroke-linecap: square;shape-rendering:crispEdges;" transform="matrix(1,0,0,1,0,0)" clip-path="url(#369442212935888clip-0)"/><line x1="130.06" y1="450" x2="130.06" y2="450" style="stroke-width: 0.5;stroke: rgb(128,128,128);stroke-opacity: 1.0;stroke-linecap: square;shape-rendering:crispEdges;" transform="matrix(1,0,0,1,0,0)" clip-path="url(#369442212935888clip-0)"/><line x1="130.06" y1="450" x2="130.06" y2="452" style="stroke-width: 0.5;stroke: rgb(128,128,128);stroke-opacity: 1.0;stroke-linecap: square;shape-rendering:crispEdges;" transform="matrix(1,0,0,1,0,0)" clip-path="url(#369442212935888clip-0)"/><line x1="214.33" y1="450" x2="214.33" y2="450" style="stroke-width: 0.5;stroke: rgb(128,128,128);stroke-opacity: 1.0;stroke-linecap: square;shape-rendering:crispEdges;" transform="matrix(1,0,0,1,0,0)" clip-path="url(#369442212935888clip-0)"/><line x1="214.33" y1="450" x2="214.33" y2="452" style="stroke-width: 0.5;stroke: rgb(128,128,128);stroke-opacity: 1.0;stroke-linecap: square;shape-rendering:crispEdges;" transform="matrix(1,0,0,1,0,0)" clip-path="url(#369442212935888clip-0)"/><line x1="298.6" y1="450" x2="298.6" y2="450" style="stroke-width: 0.5;stroke: rgb(128,128,128);stroke-opacity: 1.0;stroke-linecap: square;shape-rendering:crispEdges;" transform="matrix(1,0,0,1,0,0)" clip-path="url(#369442212935888clip-0)"/><line x1="298.6" y1="450" x2="298.6" y2="452" style="stroke-width: 0.5;stroke: rgb(128,128,128);stroke-opacity: 1.0;stroke-linecap: square;shape-rendering:crispEdges;" transform="matrix(1,0,0,1,0,0)" clip-path="url(#369442212935888clip-0)"/><line x1="382.87" y1="450" x2="382.87" y2="450" style="stroke-width: 0.5;stroke: rgb(128,128,128);stroke-opacity: 1.0;stroke-linecap: square;shape-rendering:crispEdges;" transform="matrix(1,0,0,1,0,0)" clip-path="url(#369442212935888clip-0)"/><line x1="382.87" y1="450" x2="382.87" y2="452" style="stroke-width: 0.5;stroke: rgb(128,128,128);stroke-opacity: 1.0;stroke-linecap: square;shape-rendering:crispEdges;" transform="matrix(1,0,0,1,0,0)" clip-path="url(#369442212935888clip-0)"/><line x1="467.13" y1="450" x2="467.13" y2="450" style="stroke-width: 0.5;stroke: rgb(128,128,128);stroke-opacity: 1.0;stroke-linecap: square;shape-rendering:crispEdges;" transform="matrix(1,0,0,1,0,0)" clip-path="url(#369442212935888clip-0)"/><line x1="467.13" y1="450" x2="467.13" y2="452" style="stroke-width: 0.5;stroke: rgb(128,128,128);stroke-opacity: 1.0;stroke-linecap: square;shape-rendering:crispEdges;" transform="matrix(1,0,0,1,0,0)" clip-path="url(#369442212935888clip-0)"/><line x1="551.4" y1="450" x2="551.4" y2="450" style="stroke-width: 0.5;stroke: rgb(128,128,128);stroke-opacity: 1.0;stroke-linecap: square;shape-rendering:crispEdges;" transform="matrix(1,0,0,1,0,0)" clip-path="url(#369442212935888clip-0)"/><line x1="551.4" y1="450" x2="551.4" y2="452" style="stroke-width: 0.5;stroke: rgb(128,128,128);stroke-opacity: 1.0;stroke-linecap: square;shape-rendering:crispEdges;" transform="matrix(1,0,0,1,0,0)" clip-path="url(#369442212935888clip-0)"/><line x1="635.67" y1="450" x2="635.67" y2="450" style="stroke-width: 0.5;stroke: rgb(128,128,128);stroke-opacity: 1.0;stroke-linecap: square;shape-rendering:crispEdges;" transform="matrix(1,0,0,1,0,0)" clip-path="url(#369442212935888clip-0)"/><line x1="635.67" y1="450" x2="635.67" y2="452" style="stroke-width: 0.5;stroke: rgb(128,128,128);stroke-opacity: 1.0;stroke-linecap: square;shape-rendering:crispEdges;" transform="matrix(1,0,0,1,0,0)" clip-path="url(#369442212935888clip-0)"/><line x1="719.94" y1="450" x2="719.94" y2="450" style="stroke-width: 0.5;stroke: rgb(128,128,128);stroke-opacity: 1.0;stroke-linecap: square;shape-rendering:crispEdges;" transform="matrix(1,0,0,1,0,0)" clip-path="url(#369442212935888clip-0)"/><line x1="719.94" y1="450" x2="719.94" y2="452" style="stroke-width: 0.5;stroke: rgb(128,128,128);stroke-opacity: 1.0;stroke-linecap: square;shape-rendering:crispEdges;" transform="matrix(1,0,0,1,0,0)" clip-path="url(#369442212935888clip-0)"/><g transform="matrix(1,0,0,1,0,0)"><text x="116.7" y="467.14" style="fill: rgb(64,64,64); fill-opacity: 1.0; font-family: sans-serif; font-size: 12px; " clip-path="url(#369442212935888clip-0)">16.0</text></g><g transform="matrix(1,0,0,1,0,0)"><text x="200.97" y="467.14" style="fill: rgb(64,64,64); fill-opacity: 1.0; font-family: sans-serif; font-size: 12px; " clip-path="url(#369442212935888clip-0)">22.0</text></g><g transform="matrix(1,0,0,1,0,0)"><text x="285.24" y="467.14" style="fill: rgb(64,64,64); fill-opacity: 1.0; font-family: sans-serif; font-size: 12px; " clip-path="url(#369442212935888clip-0)">27.0</text></g><g transform="matrix(1,0,0,1,0,0)"><text x="369.51" y="467.14" style="fill: rgb(64,64,64); fill-opacity: 1.0; font-family: sans-serif; font-size: 12px; " clip-path="url(#369442212935888clip-0)">32.0</text></g><g transform="matrix(1,0,0,1,0,0)"><text x="453.77" y="467.14" style="fill: rgb(64,64,64); fill-opacity: 1.0; font-family: sans-serif; font-size: 12px; " clip-path="url(#369442212935888clip-0)">37.0</text></g><g transform="matrix(1,0,0,1,0,0)"><text x="538.04" y="467.14" style="fill: rgb(64,64,64); fill-opacity: 1.0; font-family: sans-serif; font-size: 12px; " clip-path="url(#369442212935888clip-0)">44.5</text></g><g transform="matrix(1,0,0,1,0,0)"><text x="622.31" y="467.14" style="fill: rgb(64,64,64); fill-opacity: 1.0; font-family: sans-serif; font-size: 12px; " clip-path="url(#369442212935888clip-0)">54.5</text></g><g transform="matrix(1,0,0,1,0,0)"><text x="706.58" y="467.14" style="fill: rgb(64,64,64); fill-opacity: 1.0; font-family: sans-serif; font-size: 12px; " clip-path="url(#369442212935888clip-0)">65.0</text></g><line x1="58" y1="10" x2="58" y2="446" style="stroke-width: 0.5;stroke: rgb(128,128,128);stroke-opacity: 1.0;stroke-linecap: square;shape-rendering:crispEdges;" transform="matrix(1,0,0,1,0,0)" clip-path="url(#369442212935888clip-0)"/><g transform="matrix(1,0,0,1,0,0)"><text x="44.37" y="450.15" style="fill: rgb(64,64,64); fill-opacity: 1.0; font-family: sans-serif; font-size: 12px; " clip-path="url(#369442212935888clip-0)">0</text></g><line x1="56" y1="446" x2="58" y2="446" style="stroke-width: 0.5;stroke: rgb(128,128,128);stroke-opacity: 1.0;stroke-linecap: square;shape-rendering:crispEdges;" transform="matrix(1,0,0,1,0,0)" clip-path="url(#369442212935888clip-0)"/><g transform="matrix(1,0,0,1,0,0)"><text x="29.1" y="430.68" style="fill: rgb(64,64,64); fill-opacity: 1.0; font-family: sans-serif; font-size: 12px; " clip-path="url(#369442212935888clip-0)">500</text></g><line x1="56" y1="426.53" x2="58" y2="426.53" style="stroke-width: 0.5;stroke: rgb(128,128,128);stroke-opacity: 1.0;stroke-linecap: square;shape-rendering:crispEdges;" transform="matrix(1,0,0,1,0,0)" clip-path="url(#369442212935888clip-0)"/><g transform="matrix(1,0,0,1,0,0)"><text x="17.65" y="411.21" style="fill: rgb(64,64,64); fill-opacity: 1.0; font-family: sans-serif; font-size: 12px; " clip-path="url(#369442212935888clip-0)">1,000</text></g><line x1="56" y1="407.05" x2="58" y2="407.05" style="stroke-width: 0.5;stroke: rgb(128,128,128);stroke-opacity: 1.0;stroke-linecap: square;shape-rendering:crispEdges;" transform="matrix(1,0,0,1,0,0)" clip-path="url(#369442212935888clip-0)"/><g transform="matrix(1,0,0,1,0,0)"><text x="17.65" y="391.73" style="fill: rgb(64,64,64); fill-opacity: 1.0; font-family: sans-serif; font-size: 12px; " clip-path="url(#369442212935888clip-0)">1,500</text></g><line x1="56" y1="387.58" x2="58" y2="387.58" style="stroke-width: 0.5;stroke: rgb(128,128,128);stroke-opacity: 1.0;stroke-linecap: square;shape-rendering:crispEdges;" transform="matrix(1,0,0,1,0,0)" clip-path="url(#369442212935888clip-0)"/><g transform="matrix(1,0,0,1,0,0)"><text x="17.65" y="372.26" style="fill: rgb(64,64,64); fill-opacity: 1.0; font-family: sans-serif; font-size: 12px; " clip-path="url(#369442212935888clip-0)">2,000</text></g><line x1="56" y1="368.1" x2="58" y2="368.1" style="stroke-width: 0.5;stroke: rgb(128,128,128);stroke-opacity: 1.0;stroke-linecap: square;shape-rendering:crispEdges;" transform="matrix(1,0,0,1,0,0)" clip-path="url(#369442212935888clip-0)"/><g transform="matrix(1,0,0,1,0,0)"><text x="17.65" y="352.78" style="fill: rgb(64,64,64); fill-opacity: 1.0; font-family: sans-serif; font-size: 12px; " clip-path="url(#369442212935888clip-0)">2,500</text></g><line x1="56" y1="348.63" x2="58" y2="348.63" style="stroke-width: 0.5;stroke: rgb(128,128,128);stroke-opacity: 1.0;stroke-linecap: square;shape-rendering:crispEdges;" transform="matrix(1,0,0,1,0,0)" clip-path="url(#369442212935888clip-0)"/><g transform="matrix(1,0,0,1,0,0)"><text x="17.65" y="333.31" style="fill: rgb(64,64,64); fill-opacity: 1.0; font-family: sans-serif; font-size: 12px; " clip-path="url(#369442212935888clip-0)">3,000</text></g><line x1="56" y1="329.15" x2="58" y2="329.15" style="stroke-width: 0.5;stroke: rgb(128,128,128);stroke-opacity: 1.0;stroke-linecap: square;shape-rendering:crispEdges;" transform="matrix(1,0,0,1,0,0)" clip-path="url(#369442212935888clip-0)"/><g transform="matrix(1,0,0,1,0,0)"><text x="17.65" y="313.83" style="fill: rgb(64,64,64); fill-opacity: 1.0; font-family: sans-serif; font-size: 12px; " clip-path="url(#369442212935888clip-0)">3,500</text></g><line x1="56" y1="309.68" x2="58" y2="309.68" style="stroke-width: 0.5;stroke: rgb(128,128,128);stroke-opacity: 1.0;stroke-linecap: square;shape-rendering:crispEdges;" transform="matrix(1,0,0,1,0,0)" clip-path="url(#369442212935888clip-0)"/><g transform="matrix(1,0,0,1,0,0)"><text x="17.65" y="294.36" style="fill: rgb(64,64,64); fill-opacity: 1.0; font-family: sans-serif; font-size: 12px; " clip-path="url(#369442212935888clip-0)">4,000</text></g><line x1="56" y1="290.2" x2="58" y2="290.2" style="stroke-width: 0.5;stroke: rgb(128,128,128);stroke-opacity: 1.0;stroke-linecap: square;shape-rendering:crispEdges;" transform="matrix(1,0,0,1,0,0)" clip-path="url(#369442212935888clip-0)"/><g transform="matrix(1,0,0,1,0,0)"><text x="17.65" y="274.88" style="fill: rgb(64,64,64); fill-opacity: 1.0; font-family: sans-serif; font-size: 12px; " clip-path="url(#369442212935888clip-0)">4,500</text></g><line x1="56" y1="270.73" x2="58" y2="270.73" style="stroke-width: 0.5;stroke: rgb(128,128,128);stroke-opacity: 1.0;stroke-linecap: square;shape-rendering:crispEdges;" transform="matrix(1,0,0,1,0,0)" clip-path="url(#369442212935888clip-0)"/><g transform="matrix(1,0,0,1,0,0)"><text x="17.65" y="255.41" style="fill: rgb(64,64,64); fill-opacity: 1.0; font-family: sans-serif; font-size: 12px; " clip-path="url(#369442212935888clip-0)">5,000</text></g><line x1="56" y1="251.25" x2="58" y2="251.25" style="stroke-width: 0.5;stroke: rgb(128,128,128);stroke-opacity: 1.0;stroke-linecap: square;shape-rendering:crispEdges;" transform="matrix(1,0,0,1,0,0)" clip-path="url(#369442212935888clip-0)"/><g transform="matrix(1,0,0,1,0,0)"><text x="17.65" y="235.93" style="fill: rgb(64,64,64); fill-opacity: 1.0; font-family: sans-serif; font-size: 12px; " clip-path="url(#369442212935888clip-0)">5,500</text></g><line x1="56" y1="231.78" x2="58" y2="231.78" style="stroke-width: 0.5;stroke: rgb(128,128,128);stroke-opacity: 1.0;stroke-linecap: square;shape-rendering:crispEdges;" transform="matrix(1,0,0,1,0,0)" clip-path="url(#369442212935888clip-0)"/><g transform="matrix(1,0,0,1,0,0)"><text x="17.65" y="216.46" style="fill: rgb(64,64,64); fill-opacity: 1.0; font-family: sans-serif; font-size: 12px; " clip-path="url(#369442212935888clip-0)">6,000</text></g><line x1="56" y1="212.3" x2="58" y2="212.3" style="stroke-width: 0.5;stroke: rgb(128,128,128);stroke-opacity: 1.0;stroke-linecap: square;shape-rendering:crispEdges;" transform="matrix(1,0,0,1,0,0)" clip-path="url(#369442212935888clip-0)"/><g transform="matrix(1,0,0,1,0,0)"><text x="17.65" y="196.98" style="fill: rgb(64,64,64); fill-opacity: 1.0; font-family: sans-serif; font-size: 12px; " clip-path="url(#369442212935888clip-0)">6,500</text></g><line x1="56" y1="192.83" x2="58" y2="192.83" style="stroke-width: 0.5;stroke: rgb(128,128,128);stroke-opacity: 1.0;stroke-linecap: square;shape-rendering:crispEdges;" transform="matrix(1,0,0,1,0,0)" clip-path="url(#369442212935888clip-0)"/><g transform="matrix(1,0,0,1,0,0)"><text x="17.65" y="177.51" style="fill: rgb(64,64,64); fill-opacity: 1.0; font-family: sans-serif; font-size: 12px; " clip-path="url(#369442212935888clip-0)">7,000</text></g><line x1="56" y1="173.36" x2="58" y2="173.36" style="stroke-width: 0.5;stroke: rgb(128,128,128);stroke-opacity: 1.0;stroke-linecap: square;shape-rendering:crispEdges;" transform="matrix(1,0,0,1,0,0)" clip-path="url(#369442212935888clip-0)"/><g transform="matrix(1,0,0,1,0,0)"><text x="17.65" y="158.03" style="fill: rgb(64,64,64); fill-opacity: 1.0; font-family: sans-serif; font-size: 12px; " clip-path="url(#369442212935888clip-0)">7,500</text></g><line x1="56" y1="153.88" x2="58" y2="153.88" style="stroke-width: 0.5;stroke: rgb(128,128,128);stroke-opacity: 1.0;stroke-linecap: square;shape-rendering:crispEdges;" transform="matrix(1,0,0,1,0,0)" clip-path="url(#369442212935888clip-0)"/><g transform="matrix(1,0,0,1,0,0)"><text x="17.65" y="138.56" style="fill: rgb(64,64,64); fill-opacity: 1.0; font-family: sans-serif; font-size: 12px; " clip-path="url(#369442212935888clip-0)">8,000</text></g><line x1="56" y1="134.41" x2="58" y2="134.41" style="stroke-width: 0.5;stroke: rgb(128,128,128);stroke-opacity: 1.0;stroke-linecap: square;shape-rendering:crispEdges;" transform="matrix(1,0,0,1,0,0)" clip-path="url(#369442212935888clip-0)"/><g transform="matrix(1,0,0,1,0,0)"><text x="17.65" y="119.09" style="fill: rgb(64,64,64); fill-opacity: 1.0; font-family: sans-serif; font-size: 12px; " clip-path="url(#369442212935888clip-0)">8,500</text></g><line x1="56" y1="114.93" x2="58" y2="114.93" style="stroke-width: 0.5;stroke: rgb(128,128,128);stroke-opacity: 1.0;stroke-linecap: square;shape-rendering:crispEdges;" transform="matrix(1,0,0,1,0,0)" clip-path="url(#369442212935888clip-0)"/><g transform="matrix(1,0,0,1,0,0)"><text x="17.65" y="99.61" style="fill: rgb(64,64,64); fill-opacity: 1.0; font-family: sans-serif; font-size: 12px; " clip-path="url(#369442212935888clip-0)">9,000</text></g><line x1="56" y1="95.46" x2="58" y2="95.46" style="stroke-width: 0.5;stroke: rgb(128,128,128);stroke-opacity: 1.0;stroke-linecap: square;shape-rendering:crispEdges;" transform="matrix(1,0,0,1,0,0)" clip-path="url(#369442212935888clip-0)"/><g transform="matrix(1,0,0,1,0,0)"><text x="17.65" y="80.14" style="fill: rgb(64,64,64); fill-opacity: 1.0; font-family: sans-serif; font-size: 12px; " clip-path="url(#369442212935888clip-0)">9,500</text></g><line x1="56" y1="75.98" x2="58" y2="75.98" style="stroke-width: 0.5;stroke: rgb(128,128,128);stroke-opacity: 1.0;stroke-linecap: square;shape-rendering:crispEdges;" transform="matrix(1,0,0,1,0,0)" clip-path="url(#369442212935888clip-0)"/><g transform="matrix(1,0,0,1,0,0)"><text x="10.01" y="60.66" style="fill: rgb(64,64,64); fill-opacity: 1.0; font-family: sans-serif; font-size: 12px; " clip-path="url(#369442212935888clip-0)">10,000</text></g><line x1="56" y1="56.51" x2="58" y2="56.51" style="stroke-width: 0.5;stroke: rgb(128,128,128);stroke-opacity: 1.0;stroke-linecap: square;shape-rendering:crispEdges;" transform="matrix(1,0,0,1,0,0)" clip-path="url(#369442212935888clip-0)"/><g transform="matrix(1,0,0,1,0,0)"><text x="10.01" y="41.19" style="fill: rgb(64,64,64); fill-opacity: 1.0; font-family: sans-serif; font-size: 12px; " clip-path="url(#369442212935888clip-0)">10,500</text></g><line x1="56" y1="37.03" x2="58" y2="37.03" style="stroke-width: 0.5;stroke: rgb(128,128,128);stroke-opacity: 1.0;stroke-linecap: square;shape-rendering:crispEdges;" transform="matrix(1,0,0,1,0,0)" clip-path="url(#369442212935888clip-0)"/><g transform="matrix(1,0,0,1,0,0)"><text x="10.01" y="21.71" style="fill: rgb(64,64,64); fill-opacity: 1.0; font-family: sans-serif; font-size: 12px; " clip-path="url(#369442212935888clip-0)">11,000</text></g><line x1="56" y1="17.56" x2="58" y2="17.56" style="stroke-width: 0.5;stroke: rgb(128,128,128);stroke-opacity: 1.0;stroke-linecap: square;shape-rendering:crispEdges;" transform="matrix(1,0,0,1,0,0)" clip-path="url(#369442212935888clip-0)"/><line x1="62" y1="446" x2="788" y2="446" style="stroke-width: 0.5;stroke: rgb(255,255,255);stroke-opacity: 1.0;stroke-linejoin: bevel;stroke-dasharray: 2.0, 2.0;shape-rendering:crispEdges;" transform="matrix(1,0,0,1,0,0)" clip-path="url(#369442212935888clip-1)"/><line x1="62" y1="426.53" x2="788" y2="426.53" style="stroke-width: 0.5;stroke: rgb(255,255,255);stroke-opacity: 1.0;stroke-linejoin: bevel;stroke-dasharray: 2.0, 2.0;shape-rendering:crispEdges;" transform="matrix(1,0,0,1,0,0)" clip-path="url(#369442212935888clip-1)"/><line x1="62" y1="407.05" x2="788" y2="407.05" style="stroke-width: 0.5;stroke: rgb(255,255,255);stroke-opacity: 1.0;stroke-linejoin: bevel;stroke-dasharray: 2.0, 2.0;shape-rendering:crispEdges;" transform="matrix(1,0,0,1,0,0)" clip-path="url(#369442212935888clip-1)"/><line x1="62" y1="387.58" x2="788" y2="387.58" style="stroke-width: 0.5;stroke: rgb(255,255,255);stroke-opacity: 1.0;stroke-linejoin: bevel;stroke-dasharray: 2.0, 2.0;shape-rendering:crispEdges;" transform="matrix(1,0,0,1,0,0)" clip-path="url(#369442212935888clip-1)"/><line x1="62" y1="368.1" x2="788" y2="368.1" style="stroke-width: 0.5;stroke: rgb(255,255,255);stroke-opacity: 1.0;stroke-linejoin: bevel;stroke-dasharray: 2.0, 2.0;shape-rendering:crispEdges;" transform="matrix(1,0,0,1,0,0)" clip-path="url(#369442212935888clip-1)"/><line x1="62" y1="348.63" x2="788" y2="348.63" style="stroke-width: 0.5;stroke: rgb(255,255,255);stroke-opacity: 1.0;stroke-linejoin: bevel;stroke-dasharray: 2.0, 2.0;shape-rendering:crispEdges;" transform="matrix(1,0,0,1,0,0)" clip-path="url(#369442212935888clip-1)"/><line x1="62" y1="329.15" x2="788" y2="329.15" style="stroke-width: 0.5;stroke: rgb(255,255,255);stroke-opacity: 1.0;stroke-linejoin: bevel;stroke-dasharray: 2.0, 2.0;shape-rendering:crispEdges;" transform="matrix(1,0,0,1,0,0)" clip-path="url(#369442212935888clip-1)"/><line x1="62" y1="309.68" x2="788" y2="309.68" style="stroke-width: 0.5;stroke: rgb(255,255,255);stroke-opacity: 1.0;stroke-linejoin: bevel;stroke-dasharray: 2.0, 2.0;shape-rendering:crispEdges;" transform="matrix(1,0,0,1,0,0)" clip-path="url(#369442212935888clip-1)"/><line x1="62" y1="290.2" x2="788" y2="290.2" style="stroke-width: 0.5;stroke: rgb(255,255,255);stroke-opacity: 1.0;stroke-linejoin: bevel;stroke-dasharray: 2.0, 2.0;shape-rendering:crispEdges;" transform="matrix(1,0,0,1,0,0)" clip-path="url(#369442212935888clip-1)"/><line x1="62" y1="270.73" x2="788" y2="270.73" style="stroke-width: 0.5;stroke: rgb(255,255,255);stroke-opacity: 1.0;stroke-linejoin: bevel;stroke-dasharray: 2.0, 2.0;shape-rendering:crispEdges;" transform="matrix(1,0,0,1,0,0)" clip-path="url(#369442212935888clip-1)"/><line x1="62" y1="251.25" x2="788" y2="251.25" style="stroke-width: 0.5;stroke: rgb(255,255,255);stroke-opacity: 1.0;stroke-linejoin: bevel;stroke-dasharray: 2.0, 2.0;shape-rendering:crispEdges;" transform="matrix(1,0,0,1,0,0)" clip-path="url(#369442212935888clip-1)"/><line x1="62" y1="231.78" x2="788" y2="231.78" style="stroke-width: 0.5;stroke: rgb(255,255,255);stroke-opacity: 1.0;stroke-linejoin: bevel;stroke-dasharray: 2.0, 2.0;shape-rendering:crispEdges;" transform="matrix(1,0,0,1,0,0)" clip-path="url(#369442212935888clip-1)"/><line x1="62" y1="212.3" x2="788" y2="212.3" style="stroke-width: 0.5;stroke: rgb(255,255,255);stroke-opacity: 1.0;stroke-linejoin: bevel;stroke-dasharray: 2.0, 2.0;shape-rendering:crispEdges;" transform="matrix(1,0,0,1,0,0)" clip-path="url(#369442212935888clip-1)"/><line x1="62" y1="192.83" x2="788" y2="192.83" style="stroke-width: 0.5;stroke: rgb(255,255,255);stroke-opacity: 1.0;stroke-linejoin: bevel;stroke-dasharray: 2.0, 2.0;shape-rendering:crispEdges;" transform="matrix(1,0,0,1,0,0)" clip-path="url(#369442212935888clip-1)"/><line x1="62" y1="173.36" x2="788" y2="173.36" style="stroke-width: 0.5;stroke: rgb(255,255,255);stroke-opacity: 1.0;stroke-linejoin: bevel;stroke-dasharray: 2.0, 2.0;shape-rendering:crispEdges;" transform="matrix(1,0,0,1,0,0)" clip-path="url(#369442212935888clip-1)"/><line x1="62" y1="153.88" x2="788" y2="153.88" style="stroke-width: 0.5;stroke: rgb(255,255,255);stroke-opacity: 1.0;stroke-linejoin: bevel;stroke-dasharray: 2.0, 2.0;shape-rendering:crispEdges;" transform="matrix(1,0,0,1,0,0)" clip-path="url(#369442212935888clip-1)"/><line x1="62" y1="134.41" x2="788" y2="134.41" style="stroke-width: 0.5;stroke: rgb(255,255,255);stroke-opacity: 1.0;stroke-linejoin: bevel;stroke-dasharray: 2.0, 2.0;shape-rendering:crispEdges;" transform="matrix(1,0,0,1,0,0)" clip-path="url(#369442212935888clip-1)"/><line x1="62" y1="114.93" x2="788" y2="114.93" style="stroke-width: 0.5;stroke: rgb(255,255,255);stroke-opacity: 1.0;stroke-linejoin: bevel;stroke-dasharray: 2.0, 2.0;shape-rendering:crispEdges;" transform="matrix(1,0,0,1,0,0)" clip-path="url(#369442212935888clip-1)"/><line x1="62" y1="95.46" x2="788" y2="95.46" style="stroke-width: 0.5;stroke: rgb(255,255,255);stroke-opacity: 1.0;stroke-linejoin: bevel;stroke-dasharray: 2.0, 2.0;shape-rendering:crispEdges;" transform="matrix(1,0,0,1,0,0)" clip-path="url(#369442212935888clip-1)"/><line x1="62" y1="75.98" x2="788" y2="75.98" style="stroke-width: 0.5;stroke: rgb(255,255,255);stroke-opacity: 1.0;stroke-linejoin: bevel;stroke-dasharray: 2.0, 2.0;shape-rendering:crispEdges;" transform="matrix(1,0,0,1,0,0)" clip-path="url(#369442212935888clip-1)"/><line x1="62" y1="56.51" x2="788" y2="56.51" style="stroke-width: 0.5;stroke: rgb(255,255,255);stroke-opacity: 1.0;stroke-linejoin: bevel;stroke-dasharray: 2.0, 2.0;shape-rendering:crispEdges;" transform="matrix(1,0,0,1,0,0)" clip-path="url(#369442212935888clip-1)"/><line x1="62" y1="37.03" x2="788" y2="37.03" style="stroke-width: 0.5;stroke: rgb(255,255,255);stroke-opacity: 1.0;stroke-linejoin: bevel;stroke-dasharray: 2.0, 2.0;shape-rendering:crispEdges;" transform="matrix(1,0,0,1,0,0)" clip-path="url(#369442212935888clip-1)"/><line x1="62" y1="17.56" x2="788" y2="17.56" style="stroke-width: 0.5;stroke: rgb(255,255,255);stroke-opacity: 1.0;stroke-linejoin: bevel;stroke-dasharray: 2.0, 2.0;shape-rendering:crispEdges;" transform="matrix(1,0,0,1,0,0)" clip-path="url(#369442212935888clip-1)"/><line x1="130.06" y1="445.84" x2="214.33" y2="444.36" style="stroke-width: 1.0;stroke: rgb(255,85,85);stroke-opacity: 1.0;stroke-linecap: square;stroke-linejoin: bevel;shape-rendering:geometricPrecision;" transform="matrix(1,0,0,1,0,0)" clip-path="url(#369442212935888clip-1)"/><line x1="130.06" y1="445.84" x2="214.33" y2="445.1" style="stroke-width: 1.0;stroke: rgb(85,85,255);stroke-opacity: 1.0;stroke-linecap: square;stroke-linejoin: bevel;shape-rendering:geometricPrecision;" transform="matrix(1,0,0,1,0,0)" clip-path="url(#369442212935888clip-1)"/><line x1="130.06" y1="423.88" x2="214.33" y2="194.31" style="stroke-width: 1.0;stroke: rgb(85,255,85);stroke-opacity: 1.0;stroke-linecap: square;stroke-linejoin: bevel;shape-rendering:geometricPrecision;" transform="matrix(1,0,0,1,0,0)" clip-path="url(#369442212935888clip-1)"/><line x1="130.06" y1="445.03" x2="214.33" y2="426.25" style="stroke-width: 1.0;stroke: rgb(255,255,85);stroke-opacity: 1.0;stroke-linecap: square;stroke-linejoin: bevel;shape-rendering:geometricPrecision;" transform="matrix(1,0,0,1,0,0)" clip-path="url(#369442212935888clip-1)"/><line x1="214.33" y1="444.36" x2="298.6" y2="443.31" style="stroke-width: 1.0;stroke: rgb(255,85,85);stroke-opacity: 1.0;stroke-linecap: square;stroke-linejoin: bevel;shape-rendering:geometricPrecision;" transform="matrix(1,0,0,1,0,0)" clip-path="url(#369442212935888clip-1)"/><line x1="214.33" y1="445.1" x2="298.6" y2="444.99" style="stroke-width: 1.0;stroke: rgb(85,85,255);stroke-opacity: 1.0;stroke-linecap: square;stroke-linejoin: bevel;shape-rendering:geometricPrecision;" transform="matrix(1,0,0,1,0,0)" clip-path="url(#369442212935888clip-1)"/><line x1="214.33" y1="194.31" x2="298.6" y2="30.76" style="stroke-width: 1.0;stroke: rgb(85,255,85);stroke-opacity: 1.0;stroke-linecap: square;stroke-linejoin: bevel;shape-rendering:geometricPrecision;" transform="matrix(1,0,0,1,0,0)" clip-path="url(#369442212935888clip-1)"/><line x1="214.33" y1="426.25" x2="298.6" y2="417.61" style="stroke-width: 1.0;stroke: rgb(255,255,85);stroke-opacity: 1.0;stroke-linecap: square;stroke-linejoin: bevel;shape-rendering:geometricPrecision;" transform="matrix(1,0,0,1,0,0)" clip-path="url(#369442212935888clip-1)"/><line x1="298.6" y1="443.31" x2="382.87" y2="443.7" style="stroke-width: 1.0;stroke: rgb(255,85,85);stroke-opacity: 1.0;stroke-linecap: square;stroke-linejoin: bevel;shape-rendering:geometricPrecision;" transform="matrix(1,0,0,1,0,0)" clip-path="url(#369442212935888clip-1)"/><line x1="298.6" y1="444.99" x2="382.87" y2="445.18" style="stroke-width: 1.0;stroke: rgb(85,85,255);stroke-opacity: 1.0;stroke-linecap: square;stroke-linejoin: bevel;shape-rendering:geometricPrecision;" transform="matrix(1,0,0,1,0,0)" clip-path="url(#369442212935888clip-1)"/><line x1="298.6" y1="30.76" x2="382.87" y2="158.71" style="stroke-width: 1.0;stroke: rgb(85,255,85);stroke-opacity: 1.0;stroke-linecap: square;stroke-linejoin: bevel;shape-rendering:geometricPrecision;" transform="matrix(1,0,0,1,0,0)" clip-path="url(#369442212935888clip-1)"/><line x1="298.6" y1="417.61" x2="382.87" y2="431.63" style="stroke-width: 1.0;stroke: rgb(255,255,85);stroke-opacity: 1.0;stroke-linecap: square;stroke-linejoin: bevel;shape-rendering:geometricPrecision;" transform="matrix(1,0,0,1,0,0)" clip-path="url(#369442212935888clip-1)"/><line x1="382.87" y1="443.7" x2="467.13" y2="444.25" style="stroke-width: 1.0;stroke: rgb(255,85,85);stroke-opacity: 1.0;stroke-linecap: square;stroke-linejoin: bevel;shape-rendering:geometricPrecision;" transform="matrix(1,0,0,1,0,0)" clip-path="url(#369442212935888clip-1)"/><line x1="382.87" y1="445.18" x2="467.13" y2="445.53" style="stroke-width: 1.0;stroke: rgb(85,85,255);stroke-opacity: 1.0;stroke-linecap: square;stroke-linejoin: bevel;shape-rendering:geometricPrecision;" transform="matrix(1,0,0,1,0,0)" clip-path="url(#369442212935888clip-1)"/><line x1="382.87" y1="158.71" x2="467.13" y2="279.73" style="stroke-width: 1.0;stroke: rgb(85,255,85);stroke-opacity: 1.0;stroke-linecap: square;stroke-linejoin: bevel;shape-rendering:geometricPrecision;" transform="matrix(1,0,0,1,0,0)" clip-path="url(#369442212935888clip-1)"/><line x1="382.87" y1="431.63" x2="467.13" y2="439.46" style="stroke-width: 1.0;stroke: rgb(255,255,85);stroke-opacity: 1.0;stroke-linecap: square;stroke-linejoin: bevel;shape-rendering:geometricPrecision;" transform="matrix(1,0,0,1,0,0)" clip-path="url(#369442212935888clip-1)"/><line x1="467.13" y1="444.25" x2="551.4" y2="444.4" style="stroke-width: 1.0;stroke: rgb(255,85,85);stroke-opacity: 1.0;stroke-linecap: square;stroke-linejoin: bevel;shape-rendering:geometricPrecision;" transform="matrix(1,0,0,1,0,0)" clip-path="url(#369442212935888clip-1)"/><line x1="467.13" y1="445.53" x2="551.4" y2="445.65" style="stroke-width: 1.0;stroke: rgb(85,85,255);stroke-opacity: 1.0;stroke-linecap: square;stroke-linejoin: bevel;shape-rendering:geometricPrecision;" transform="matrix(1,0,0,1,0,0)" clip-path="url(#369442212935888clip-1)"/><line x1="467.13" y1="279.73" x2="551.4" y2="302.43" style="stroke-width: 1.0;stroke: rgb(85,255,85);stroke-opacity: 1.0;stroke-linecap: square;stroke-linejoin: bevel;shape-rendering:geometricPrecision;" transform="matrix(1,0,0,1,0,0)" clip-path="url(#369442212935888clip-1)"/><line x1="467.13" y1="439.46" x2="551.4" y2="439.73" style="stroke-width: 1.0;stroke: rgb(255,255,85);stroke-opacity: 1.0;stroke-linecap: square;stroke-linejoin: bevel;shape-rendering:geometricPrecision;" transform="matrix(1,0,0,1,0,0)" clip-path="url(#369442212935888clip-1)"/><line x1="551.4" y1="444.4" x2="635.67" y2="445.57" style="stroke-width: 1.0;stroke: rgb(255,85,85);stroke-opacity: 1.0;stroke-linecap: square;stroke-linejoin: bevel;shape-rendering:geometricPrecision;" transform="matrix(1,0,0,1,0,0)" clip-path="url(#369442212935888clip-1)"/><line x1="551.4" y1="445.65" x2="635.67" y2="445.92" style="stroke-width: 1.0;stroke: rgb(85,85,255);stroke-opacity: 1.0;stroke-linecap: square;stroke-linejoin: bevel;shape-rendering:geometricPrecision;" transform="matrix(1,0,0,1,0,0)" clip-path="url(#369442212935888clip-1)"/><line x1="551.4" y1="302.43" x2="635.67" y2="399.57" style="stroke-width: 1.0;stroke: rgb(85,255,85);stroke-opacity: 1.0;stroke-linecap: square;stroke-linejoin: bevel;shape-rendering:geometricPrecision;" transform="matrix(1,0,0,1,0,0)" clip-path="url(#369442212935888clip-1)"/><line x1="551.4" y1="439.73" x2="635.67" y2="443.2" style="stroke-width: 1.0;stroke: rgb(255,255,85);stroke-opacity: 1.0;stroke-linecap: square;stroke-linejoin: bevel;shape-rendering:geometricPrecision;" transform="matrix(1,0,0,1,0,0)" clip-path="url(#369442212935888clip-1)"/><line x1="635.67" y1="445.57" x2="719.94" y2="445.96" style="stroke-width: 1.0;stroke: rgb(255,85,85);stroke-opacity: 1.0;stroke-linecap: square;stroke-linejoin: bevel;shape-rendering:geometricPrecision;" transform="matrix(1,0,0,1,0,0)" clip-path="url(#369442212935888clip-1)"/><line x1="635.67" y1="445.92" x2="719.94" y2="445.77" style="stroke-width: 1.0;stroke: rgb(85,85,255);stroke-opacity: 1.0;stroke-linecap: square;stroke-linejoin: bevel;shape-rendering:geometricPrecision;" transform="matrix(1,0,0,1,0,0)" clip-path="url(#369442212935888clip-1)"/><line x1="635.67" y1="399.57" x2="719.94" y2="438.21" style="stroke-width: 1.0;stroke: rgb(85,255,85);stroke-opacity: 1.0;stroke-linecap: square;stroke-linejoin: bevel;shape-rendering:geometricPrecision;" transform="matrix(1,0,0,1,0,0)" clip-path="url(#369442212935888clip-1)"/><line x1="635.67" y1="443.2" x2="719.94" y2="445.49" style="stroke-width: 1.0;stroke: rgb(255,255,85);stroke-opacity: 1.0;stroke-linecap: square;stroke-linejoin: bevel;shape-rendering:geometricPrecision;" transform="matrix(1,0,0,1,0,0)" clip-path="url(#369442212935888clip-1)"/><rect x="62" y="10" width="726" height="436" style="stroke-width: 0.5;stroke: rgb(0,0,0);stroke-opacity: 1.0;stroke-linecap: round;stroke-linejoin: round;shape-rendering:crispEdges;; fill: none" transform="matrix(1,0,0,1,0,0)" clip-path="url(#369442212935888clip-0)"/></svg>
