<!DOCTYPE svg PUBLIC "-//W3C//DTD SVG 1.1//EN" "http://www.w3.org/Graphics/SVG/1.1/DTD/svg11.dtd">
<svg xmlns="http://www.w3.org/2000/svg" xmlns:xlink="http://www.w3.org/1999/xlink" xmlns:jfreesvg="http://www.jfree.org/jfreesvg/svg" width="680" height="420" text-rendering="auto" shape-rendering="auto">
<defs><clipPath id="366685764078338clip-0"><path d="M 0 0 L 680 0 L 680 420 L 0 420 L 0 0 Z "/></clipPath>
<clipPath id="366685764078338clip-1"><path d="M 62 10 L 62 366 L 668 366 L 668 10 Z "/></clipPath>
</defs>
<rect x="0" y="0" width="680" height="420" style="fill: rgb(255,255,255); fill-opacity: 1.0" transform="matrix(1,0,0,1,0,0)" clip-path="url(#366685764078338clip-0)"/><rect x="174.06" y="397.03" width="331.89" height="21.97" style="fill: rgb(255,255,255); fill-opacity: 1.0" transform="matrix(1,0,0,1,0,0)" clip-path="url(#366685764078338clip-0)"/><line x1="174.56" y1="397.53" x2="505.44" y2="397.53" style="stroke-width: 1.0;stroke: rgb(0,0,0);stroke-opacity: 1.0;stroke-linecap: square;shape-rendering:crispEdges;" transform="matrix(1,0,0,1,0,0)" clip-path="url(#366685764078338clip-0)"/><line x1="174.56" y1="418.5" x2="505.44" y2="418.5" style="stroke-width: 1.0;stroke: rgb(0,0,0);stroke-opacity: 1.0;stroke-linecap: square;shape-rendering:crispEdges;" transform="matrix(1,0,0,1,0,0)" clip-path="url(#366685764078338clip-0)"/><line x1="174.56" y1="418.5" x2="174.56" y2="397.53" style="stroke-width: 1.0;stroke: rgb(0,0,0);stroke-opacity: 1.0;stroke-linecap: square;shape-rendering:crispEdges;" transform="matrix(1,0,0,1,0,0)" clip-path="url(#366685764078338clip-0)"/><line x1="505.44" y1="418.5" x2="505.44" y2="397.53" style="stroke-width: 1.0;stroke: rgb(0,0,0);stroke-opacity: 1.0;stroke-linecap: square;shape-rendering:crispEdges;" transform="matrix(1,0,0,1,0,0)" clip-path="url(#366685764078338clip-0)"/><g style="stroke-width: 1.0;stroke: rgb(255,85,85);stroke-opacity: 1.0;stroke-linecap: square;stroke-linejoin: bevel;shape-rendering:geometricPrecision;; fill: none" transform="matrix(1,0,0,1,0,0)" clip-path="url(#366685764078338clip-0)"><path d="M 178.06 408.02 L 192.06 408.02"/></g><g transform="matrix(1,0,0,1,0,0)"><text x="196.06" y="412.17" style="fill: rgb(64,64,64); fill-opacity: 1.0; font-family: sans-serif; font-size: 12px; " clip-path="url(#366685764078338clip-0)">Prefer not to disclose</text></g><g style="stroke-width: 1.0;stroke: rgb(85,85,255);stroke-opacity: 1.0;stroke-linecap: square;stroke-linejoin: bevel;shape-rendering:geometricPrecision;; fill: none" transform="matrix(1,0,0,1,0,0)" clip-path="url(#366685764078338clip-0)"><path d="M 329.4 408.02 L 343.4 408.02"/></g><g transform="matrix(1,0,0,1,0,0)"><text x="347.4" y="412.17" style="fill: rgb(64,64,64); fill-opacity: 1.0; font-family: sans-serif; font-size: 12px; " clip-path="url(#366685764078338clip-0)">Other</text></g><g style="stroke-width: 1.0;stroke: rgb(85,255,85);stroke-opacity: 1.0;stroke-linecap: square;stroke-linejoin: bevel;shape-rendering:geometricPrecision;; fill: none" transform="matrix(1,0,0,1,0,0)" clip-path="url(#366685764078338clip-0)"><path d="M 387.48 408.02 L 401.48 408.02"/></g><g transform="matrix(1,0,0,1,0,0)"><text x="405.48" y="412.17" style="fill: rgb(64,64,64); fill-opacity: 1.0; font-family: sans-serif; font-size: 12px; " clip-path="url(#366685764078338clip-0)">Male</text></g><g style="stroke-width: 1.0;stroke: rgb(255,255,85);stroke-opacity: 1.0;stroke-linecap: square;stroke-linejoin: bevel;shape-rendering:geometricPrecision;; fill: none" transform="matrix(1,0,0,1,0,0)" clip-path="url(#366685764078338clip-0)"><path d="M 439.9 408.02 L 453.9 408.02"/></g><g transform="matrix(1,0,0,1,0,0)"><text x="457.9" y="412.17" style="fill: rgb(64,64,64); fill-opacity: 1.0; font-family: sans-serif; font-size: 12px; " clip-path="url(#366685764078338clip-0)">Female</text></g><rect x="62" y="10" width="606" height="356" style="fill: rgb(192,192,192); fill-opacity: 1.0" transform="matrix(1,0,0,1,0,0)" clip-path="url(#366685764078338clip-0)"/><line x1="62" y1="370" x2="668" y2="370" style="stroke-width: 0.5;stroke: rgb(128,128,128);stroke-opacity: 1.0;stroke-linecap: square;shape-rendering:crispEdges;" transform="matrix(1,0,0,1,0,0)" clip-path="url(#366685764078338clip-0)"/><line x1="118.81" y1="370" x2="118.81" y2="370" style="stroke-width: 0.5;stroke: rgb(128,128,128);stroke-opacity: 1.0;stroke-linecap: square;shape-rendering:crispEdges;" transform="matrix(1,0,0,1,0,0)" clip-path="url(#366685764078338clip-0)"/><line x1="118.81" y1="370" x2="118.81" y2="372" style="stroke-width: 0.5;stroke: rgb(128,128,128);stroke-opacity: 1.0;stroke-linecap: square;shape-rendering:crispEdges;" transform="matrix(1,0,0,1,0,0)" clip-path="url(#366685764078338clip-0)"/><line x1="189.15" y1="370" x2="189.15" y2="370" style="stroke-width: 0.5;stroke: rgb(128,128,128);stroke-opacity: 1.0;stroke-linecap: square;shape-rendering:crispEdges;" transform="matrix(1,0,0,1,0,0)" clip-path="url(#366685764078338clip-0)"/><line x1="189.15" y1="370" x2="189.15" y2="372" style="stroke-width: 0.5;stroke: rgb(128,128,128);stroke-opacity: 1.0;stroke-linecap: square;shape-rendering:crispEdges;" transform="matrix(1,0,0,1,0,0)" clip-path="url(#366685764078338clip-0)"/><line x1="259.49" y1="370" x2="259.49" y2="370" style="stroke-width: 0.5;stroke: rgb(128,128,128);stroke-opacity: 1.0;stroke-linecap: square;shape-rendering:crispEdges;" transform="matrix(1,0,0,1,0,0)" clip-path="url(#366685764078338clip-0)"/><line x1="259.49" y1="370" x2="259.49" y2="372" style="stroke-width: 0.5;stroke: rgb(128,128,128);stroke-opacity: 1.0;stroke-linecap: square;shape-rendering:crispEdges;" transform="matrix(1,0,0,1,0,0)" clip-path="url(#366685764078338clip-0)"/><line x1="329.83" y1="370" x2="329.83" y2="370" style="stroke-width: 0.5;stroke: rgb(128,128,128);stroke-opacity: 1.0;stroke-linecap: square;shape-rendering:crispEdges;" transform="matrix(1,0,0,1,0,0)" clip-path="url(#366685764078338clip-0)"/><line x1="329.83" y1="370" x2="329.83" y2="372" style="stroke-width: 0.5;stroke: rgb(128,128,128);stroke-opacity: 1.0;stroke-linecap: square;shape-rendering:crispEdges;" transform="matrix(1,0,0,1,0,0)" clip-path="url(#366685764078338clip-0)"/><line x1="400.17" y1="370" x2="400.17" y2="370" style="stroke-width: 0.5;stroke: rgb(128,128,128);stroke-opacity: 1.0;stroke-linecap: square;shape-rendering:crispEdges;" transform="matrix(1,0,0,1,0,0)" clip-path="url(#366685764078338clip-0)"/><line x1="400.17" y1="370" x2="400.17" y2="372" style="stroke-width: 0.5;stroke: rgb(128,128,128);stroke-opacity: 1.0;stroke-linecap: square;shape-rendering:crispEdges;" transform="matrix(1,0,0,1,0,0)" clip-path="url(#366685764078338clip-0)"/><line x1="470.51" y1="370" x2="470.51" y2="370" style="stroke-width: 0.5;stroke: rgb(128,128,128);stroke-opacity: 1.0;stroke-linecap: square;shape-rendering:crispEdges;" transform="matrix(1,0,0,1,0,0)" clip-path="url(#366685764078338clip-0)"/><line x1="470.51" y1="370" x2="470.51" y2="372" style="stroke-width: 0.5;stroke: rgb(128,128,128);stroke-opacity: 1.0;stroke-linecap: square;shape-rendering:crispEdges;" transform="matrix(1,0,0,1,0,0)" clip-path="url(#366685764078338clip-0)"/><line x1="540.85" y1="370" x2="540.85" y2="370" style="stroke-width: 0.5;stroke: rgb(128,128,128);stroke-opacity: 1.0;stroke-linecap: square;shape-rendering:crispEdges;" transform="matrix(1,0,0,1,0,0)" clip-path="url(#366685764078338clip-0)"/><line x1="540.85" y1="370" x2="540.85" y2="372" style="stroke-width: 0.5;stroke: rgb(128,128,128);stroke-opacity: 1.0;stroke-linecap: square;shape-rendering:crispEdges;" transform="matrix(1,0,0,1,0,0)" clip-path="url(#366685764078338clip-0)"/><line x1="611.19" y1="370" x2="611.19" y2="370" style="stroke-width: 0.5;stroke: rgb(128,128,128);stroke-opacity: 1.0;stroke-linecap: square;shape-rendering:crispEdges;" transform="matrix(1,0,0,1,0,0)" clip-path="url(#366685764078338clip-0)"/><line x1="611.19" y1="370" x2="611.19" y2="372" style="stroke-width: 0.5;stroke: rgb(128,128,128);stroke-opacity: 1.0;stroke-linecap: square;shape-rendering:crispEdges;" transform="matrix(1,0,0,1,0,0)" clip-path="url(#366685764078338clip-0)"/><g transform="matrix(1,0,0,1,0,0)"><text x="105.45" y="387.14" style="fill: rgb(64,64,64); fill-opacity: 1.0; font-family: sans-serif; font-size: 12px; " clip-path="url(#366685764078338clip-0)">16.0</text></g><g transform="matrix(1,0,0,1,0,0)"><text x="175.79" y="387.14" style="fill: rgb(64,64,64); fill-opacity: 1.0; font-family: sans-serif; font-size: 12px; " clip-path="url(#366685764078338clip-0)">22.0</text></g><g transform="matrix(1,0,0,1,0,0)"><text x="246.13" y="387.14" style="fill: rgb(64,64,64); fill-opacity: 1.0; font-family: sans-serif; font-size: 12px; " clip-path="url(#366685764078338clip-0)">27.0</text></g><g transform="matrix(1,0,0,1,0,0)"><text x="316.47" y="387.14" style="fill: rgb(64,64,64); fill-opacity: 1.0; font-family: sans-serif; font-size: 12px; " clip-path="url(#366685764078338clip-0)">32.0</text></g><g transform="matrix(1,0,0,1,0,0)"><text x="386.81" y="387.14" style="fill: rgb(64,64,64); fill-opacity: 1.0; font-family: sans-serif; font-size: 12px; " clip-path="url(#366685764078338clip-0)">37.0</text></g><g transform="matrix(1,0,0,1,0,0)"><text x="457.15" y="387.14" style="fill: rgb(64,64,64); fill-opacity: 1.0; font-family: sans-serif; font-size: 12px; " clip-path="url(#366685764078338clip-0)">44.5</text></g><g transform="matrix(1,0,0,1,0,0)"><text x="527.49" y="387.14" style="fill: rgb(64,64,64); fill-opacity: 1.0; font-family: sans-serif; font-size: 12px; " clip-path="url(#366685764078338clip-0)">54.5</text></g><g transform="matrix(1,0,0,1,0,0)"><text x="597.83" y="387.14" style="fill: rgb(64,64,64); fill-opacity: 1.0; font-family: sans-serif; font-size: 12px; " clip-path="url(#366685764078338clip-0)">65.0</text></g><line x1="58" y1="10" x2="58" y2="366" style="stroke-width: 0.5;stroke: rgb(128,128,128);stroke-opacity: 1.0;stroke-linecap: square;shape-rendering:crispEdges;" transform="matrix(1,0,0,1,0,0)" clip-path="url(#366685764078338clip-0)"/><g transform="matrix(1,0,0,1,0,0)"><text x="44.37" y="370.15" style="fill: rgb(64,64,64); fill-opacity: 1.0; font-family: sans-serif; font-size: 12px; " clip-path="url(#366685764078338clip-0)">0</text></g><line x1="56" y1="366" x2="58" y2="366" style="stroke-width: 0.5;stroke: rgb(128,128,128);stroke-opacity: 1.0;stroke-linecap: square;shape-rendering:crispEdges;" transform="matrix(1,0,0,1,0,0)" clip-path="url(#366685764078338clip-0)"/><g transform="matrix(1,0,0,1,0,0)"><text x="17.65" y="338.35" style="fill: rgb(64,64,64); fill-opacity: 1.0; font-family: sans-serif; font-size: 12px; " clip-path="url(#366685764078338clip-0)">1,000</text></g><line x1="56" y1="334.2" x2="58" y2="334.2" style="stroke-width: 0.5;stroke: rgb(128,128,128);stroke-opacity: 1.0;stroke-linecap: square;shape-rendering:crispEdges;" transform="matrix(1,0,0,1,0,0)" clip-path="url(#366685764078338clip-0)"/><g transform="matrix(1,0,0,1,0,0)"><text x="17.65" y="306.55" style="fill: rgb(64,64,64); fill-opacity: 1.0; font-family: sans-serif; font-size: 12px; " clip-path="url(#366685764078338clip-0)">2,000</text></g><line x1="56" y1="302.39" x2="58" y2="302.39" style="stroke-width: 0.5;stroke: rgb(128,128,128);stroke-opacity: 1.0;stroke-linecap: square;shape-rendering:crispEdges;" transform="matrix(1,0,0,1,0,0)" clip-path="url(#366685764078338clip-0)"/><g transform="matrix(1,0,0,1,0,0)"><text x="17.65" y="274.75" style="fill: rgb(64,64,64); fill-opacity: 1.0; font-family: sans-serif; font-size: 12px; " clip-path="url(#366685764078338clip-0)">3,000</text></g><line x1="56" y1="270.59" x2="58" y2="270.59" style="stroke-width: 0.5;stroke: rgb(128,128,128);stroke-opacity: 1.0;stroke-linecap: square;shape-rendering:crispEdges;" transform="matrix(1,0,0,1,0,0)" clip-path="url(#366685764078338clip-0)"/><g transform="matrix(1,0,0,1,0,0)"><text x="17.65" y="242.94" style="fill: rgb(64,64,64); fill-opacity: 1.0; font-family: sans-serif; font-size: 12px; " clip-path="url(#366685764078338clip-0)">4,000</text></g><line x1="56" y1="238.79" x2="58" y2="238.79" style="stroke-width: 0.5;stroke: rgb(128,128,128);stroke-opacity: 1.0;stroke-linecap: square;shape-rendering:crispEdges;" transform="matrix(1,0,0,1,0,0)" clip-path="url(#366685764078338clip-0)"/><g transform="matrix(1,0,0,1,0,0)"><text x="17.65" y="211.14" style="fill: rgb(64,64,64); fill-opacity: 1.0; font-family: sans-serif; font-size: 12px; " clip-path="url(#366685764078338clip-0)">5,000</text></g><line x1="56" y1="206.99" x2="58" y2="206.99" style="stroke-width: 0.5;stroke: rgb(128,128,128);stroke-opacity: 1.0;stroke-linecap: square;shape-rendering:crispEdges;" transform="matrix(1,0,0,1,0,0)" clip-path="url(#366685764078338clip-0)"/><g transform="matrix(1,0,0,1,0,0)"><text x="17.65" y="179.34" style="fill: rgb(64,64,64); fill-opacity: 1.0; font-family: sans-serif; font-size: 12px; " clip-path="url(#366685764078338clip-0)">6,000</text></g><line x1="56" y1="175.18" x2="58" y2="175.18" style="stroke-width: 0.5;stroke: rgb(128,128,128);stroke-opacity: 1.0;stroke-linecap: square;shape-rendering:crispEdges;" transform="matrix(1,0,0,1,0,0)" clip-path="url(#366685764078338clip-0)"/><g transform="matrix(1,0,0,1,0,0)"><text x="17.65" y="147.54" style="fill: rgb(64,64,64); fill-opacity: 1.0; font-family: sans-serif; font-size: 12px; " clip-path="url(#366685764078338clip-0)">7,000</text></g><line x1="56" y1="143.38" x2="58" y2="143.38" style="stroke-width: 0.5;stroke: rgb(128,128,128);stroke-opacity: 1.0;stroke-linecap: square;shape-rendering:crispEdges;" transform="matrix(1,0,0,1,0,0)" clip-path="url(#366685764078338clip-0)"/><g transform="matrix(1,0,0,1,0,0)"><text x="17.65" y="115.73" style="fill: rgb(64,64,64); fill-opacity: 1.0; font-family: sans-serif; font-size: 12px; " clip-path="url(#366685764078338clip-0)">8,000</text></g><line x1="56" y1="111.58" x2="58" y2="111.58" style="stroke-width: 0.5;stroke: rgb(128,128,128);stroke-opacity: 1.0;stroke-linecap: square;shape-rendering:crispEdges;" transform="matrix(1,0,0,1,0,0)" clip-path="url(#366685764078338clip-0)"/><g transform="matrix(1,0,0,1,0,0)"><text x="17.65" y="83.93" style="fill: rgb(64,64,64); fill-opacity: 1.0; font-family: sans-serif; font-size: 12px; " clip-path="url(#366685764078338clip-0)">9,000</text></g><line x1="56" y1="79.78" x2="58" y2="79.78" style="stroke-width: 0.5;stroke: rgb(128,128,128);stroke-opacity: 1.0;stroke-linecap: square;shape-rendering:crispEdges;" transform="matrix(1,0,0,1,0,0)" clip-path="url(#366685764078338clip-0)"/><g transform="matrix(1,0,0,1,0,0)"><text x="10.01" y="52.13" style="fill: rgb(64,64,64); fill-opacity: 1.0; font-family: sans-serif; font-size: 12px; " clip-path="url(#366685764078338clip-0)">10,000</text></g><line x1="56" y1="47.97" x2="58" y2="47.97" style="stroke-width: 0.5;stroke: rgb(128,128,128);stroke-opacity: 1.0;stroke-linecap: square;shape-rendering:crispEdges;" transform="matrix(1,0,0,1,0,0)" clip-path="url(#366685764078338clip-0)"/><g transform="matrix(1,0,0,1,0,0)"><text x="10.01" y="20.33" style="fill: rgb(64,64,64); fill-opacity: 1.0; font-family: sans-serif; font-size: 12px; " clip-path="url(#366685764078338clip-0)">11,000</text></g><line x1="56" y1="16.17" x2="58" y2="16.17" style="stroke-width: 0.5;stroke: rgb(128,128,128);stroke-opacity: 1.0;stroke-linecap: square;shape-rendering:crispEdges;" transform="matrix(1,0,0,1,0,0)" clip-path="url(#366685764078338clip-0)"/><line x1="62" y1="366" x2="668" y2="366" style="stroke-width: 0.5;stroke: rgb(255,255,255);stroke-opacity: 1.0;stroke-linejoin: bevel;stroke-dasharray: 2.0, 2.0;shape-rendering:crispEdges;" transform="matrix(1,0,0,1,0,0)" clip-path="url(#366685764078338clip-1)"/><line x1="62" y1="334.2" x2="668" y2="334.2" style="stroke-width: 0.5;stroke: rgb(255,255,255);stroke-opacity: 1.0;stroke-linejoin: bevel;stroke-dasharray: 2.0, 2.0;shape-rendering:crispEdges;" transform="matrix(1,0,0,1,0,0)" clip-path="url(#366685764078338clip-1)"/><line x1="62" y1="302.39" x2="668" y2="302.39" style="stroke-width: 0.5;stroke: rgb(255,255,255);stroke-opacity: 1.0;stroke-linejoin: bevel;stroke-dasharray: 2.0, 2.0;shape-rendering:crispEdges;" transform="matrix(1,0,0,1,0,0)" clip-path="url(#366685764078338clip-1)"/><line x1="62" y1="270.59" x2="668" y2="270.59" style="stroke-width: 0.5;stroke: rgb(255,255,255);stroke-opacity: 1.0;stroke-linejoin: bevel;stroke-dasharray: 2.0, 2.0;shape-rendering:crispEdges;" transform="matrix(1,0,0,1,0,0)" clip-path="url(#366685764078338clip-1)"/><line x1="62" y1="238.79" x2="668" y2="238.79" style="stroke-width: 0.5;stroke: rgb(255,255,255);stroke-opacity: 1.0;stroke-linejoin: bevel;stroke-dasharray: 2.0, 2.0;shape-rendering:crispEdges;" transform="matrix(1,0,0,1,0,0)" clip-path="url(#366685764078338clip-1)"/><line x1="62" y1="206.99" x2="668" y2="206.99" style="stroke-width: 0.5;stroke: rgb(255,255,255);stroke-opacity: 1.0;stroke-linejoin: bevel;stroke-dasharray: 2.0, 2.0;shape-rendering:crispEdges;" transform="matrix(1,0,0,1,0,0)" clip-path="url(#366685764078338clip-1)"/><line x1="62" y1="175.18" x2="668" y2="175.18" style="stroke-width: 0.5;stroke: rgb(255,255,255);stroke-opacity: 1.0;stroke-linejoin: bevel;stroke-dasharray: 2.0, 2.0;shape-rendering:crispEdges;" transform="matrix(1,0,0,1,0,0)" clip-path="url(#366685764078338clip-1)"/><line x1="62" y1="143.38" x2="668" y2="143.38" style="stroke-width: 0.5;stroke: rgb(255,255,255);stroke-opacity: 1.0;stroke-linejoin: bevel;stroke-dasharray: 2.0, 2.0;shape-rendering:crispEdges;" transform="matrix(1,0,0,1,0,0)" clip-path="url(#366685764078338clip-1)"/><line x1="62" y1="111.58" x2="668" y2="111.58" style="stroke-width: 0.5;stroke: rgb(255,255,255);stroke-opacity: 1.0;stroke-linejoin: bevel;stroke-dasharray: 2.0, 2.0;shape-rendering:crispEdges;" transform="matrix(1,0,0,1,0,0)" clip-path="url(#366685764078338clip-1)"/><line x1="62" y1="79.78" x2="668" y2="79.78" style="stroke-width: 0.5;stroke: rgb(255,255,255);stroke-opacity: 1.0;stroke-linejoin: bevel;stroke-dasharray: 2.0, 2.0;shape-rendering:crispEdges;" transform="matrix(1,0,0,1,0,0)" clip-path="url(#366685764078338clip-1)"/><line x1="62" y1="47.97" x2="668" y2="47.97" style="stroke-width: 0.5;stroke: rgb(255,255,255);stroke-opacity: 1.0;stroke-linejoin: bevel;stroke-dasharray: 2.0, 2.0;shape-rendering:crispEdges;" transform="matrix(1,0,0,1,0,0)" clip-path="url(#366685764078338clip-1)"/><line x1="62" y1="16.17" x2="668" y2="16.17" style="stroke-width: 0.5;stroke: rgb(255,255,255);stroke-opacity: 1.0;stroke-linejoin: bevel;stroke-dasharray: 2.0, 2.0;shape-rendering:crispEdges;" transform="matrix(1,0,0,1,0,0)" clip-path="url(#366685764078338clip-1)"/><line x1="118.81" y1="365.87" x2="189.15" y2="364.66" style="stroke-width: 1.0;stroke: rgb(255,85,85);stroke-opacity: 1.0;stroke-linecap: square;stroke-linejoin: bevel;shape-rendering:geometricPrecision;" transform="matrix(1,0,0,1,0,0)" clip-path="url(#366685764078338clip-1)"/><line x1="118.81" y1="365.87" x2="189.15" y2="365.27" style="stroke-width: 1.0;stroke: rgb(85,85,255);stroke-opacity: 1.0;stroke-linecap: square;stroke-linejoin: bevel;shape-rendering:geometricPrecision;" transform="matrix(1,0,0,1,0,0)" clip-path="url(#366685764078338clip-1)"/><line x1="118.81" y1="347.94" x2="189.15" y2="160.49" style="stroke-width: 1.0;stroke: rgb(85,255,85);stroke-opacity: 1.0;stroke-linecap: square;stroke-linejoin: bevel;shape-rendering:geometricPrecision;" transform="matrix(1,0,0,1,0,0)" clip-path="url(#366685764078338clip-1)"/><line x1="118.81" y1="365.2" x2="189.15" y2="349.88" style="stroke-width: 1.0;stroke: rgb(255,255,85);stroke-opacity: 1.0;stroke-linecap: square;stroke-linejoin: bevel;shape-rendering:geometricPrecision;" transform="matrix(1,0,0,1,0,0)" clip-path="url(#366685764078338clip-1)"/><line x1="189.15" y1="364.66" x2="259.49" y2="363.81" style="stroke-width: 1.0;stroke: rgb(255,85,85);stroke-opacity: 1.0;stroke-linecap: square;stroke-linejoin: bevel;shape-rendering:geometricPrecision;" transform="matrix(1,0,0,1,0,0)" clip-path="url(#366685764078338clip-1)"/><line x1="189.15" y1="365.27" x2="259.49" y2="365.17" style="stroke-width: 1.0;stroke: rgb(85,85,255);stroke-opacity: 1.0;stroke-linecap: square;stroke-linejoin: bevel;shape-rendering:geometricPrecision;" transform="matrix(1,0,0,1,0,0)" clip-path="url(#366685764078338clip-1)"/><line x1="189.15" y1="160.49" x2="259.49" y2="26.95" style="stroke-width: 1.0;stroke: rgb(85,255,85);stroke-opacity: 1.0;stroke-linecap: square;stroke-linejoin: bevel;shape-rendering:geometricPrecision;" transform="matrix(1,0,0,1,0,0)" clip-path="url(#366685764078338clip-1)"/><line x1="189.15" y1="349.88" x2="259.49" y2="342.82" style="stroke-width: 1.0;stroke: rgb(255,255,85);stroke-opacity: 1.0;stroke-linecap: square;stroke-linejoin: bevel;shape-rendering:geometricPrecision;" transform="matrix(1,0,0,1,0,0)" clip-path="url(#366685764078338clip-1)"/><line x1="259.49" y1="363.81" x2="329.83" y2="364.12" style="stroke-width: 1.0;stroke: rgb(255,85,85);stroke-opacity: 1.0;stroke-linecap: square;stroke-linejoin: bevel;shape-rendering:geometricPrecision;" transform="matrix(1,0,0,1,0,0)" clip-path="url(#366685764078338clip-1)"/><line x1="259.49" y1="365.17" x2="329.83" y2="365.33" style="stroke-width: 1.0;stroke: rgb(85,85,255);stroke-opacity: 1.0;stroke-linecap: square;stroke-linejoin: bevel;shape-rendering:geometricPrecision;" transform="matrix(1,0,0,1,0,0)" clip-path="url(#366685764078338clip-1)"/><line x1="259.49" y1="26.95" x2="329.83" y2="131.42" style="stroke-width: 1.0;stroke: rgb(85,255,85);stroke-opacity: 1.0;stroke-linecap: square;stroke-linejoin: bevel;shape-rendering:geometricPrecision;" transform="matrix(1,0,0,1,0,0)" clip-path="url(#366685764078338clip-1)"/><line x1="259.49" y1="342.82" x2="329.83" y2="354.26" style="stroke-width: 1.0;stroke: rgb(255,255,85);stroke-opacity: 1.0;stroke-linecap: square;stroke-linejoin: bevel;shape-rendering:geometricPrecision;" transform="matrix(1,0,0,1,0,0)" clip-path="url(#366685764078338clip-1)"/><line x1="329.83" y1="364.12" x2="400.17" y2="364.57" style="stroke-width: 1.0;stroke: rgb(255,85,85);stroke-opacity: 1.0;stroke-linecap: square;stroke-linejoin: bevel;shape-rendering:geometricPrecision;" transform="matrix(1,0,0,1,0,0)" clip-path="url(#366685764078338clip-1)"/><line x1="329.83" y1="365.33" x2="400.17" y2="365.62" style="stroke-width: 1.0;stroke: rgb(85,85,255);stroke-opacity: 1.0;stroke-linecap: square;stroke-linejoin: bevel;shape-rendering:geometricPrecision;" transform="matrix(1,0,0,1,0,0)" clip-path="url(#366685764078338clip-1)"/><line x1="329.83" y1="131.42" x2="400.17" y2="230.23" style="stroke-width: 1.0;stroke: rgb(85,255,85);stroke-opacity: 1.0;stroke-linecap: square;stroke-linejoin: bevel;shape-rendering:geometricPrecision;" transform="matrix(1,0,0,1,0,0)" clip-path="url(#366685764078338clip-1)"/><line x1="329.83" y1="354.26" x2="400.17" y2="360.66" style="stroke-width: 1.0;stroke: rgb(255,255,85);stroke-opacity: 1.0;stroke-linecap: square;stroke-linejoin: bevel;shape-rendering:geometricPrecision;" transform="matrix(1,0,0,1,0,0)" clip-path="url(#366685764078338clip-1)"/><line x1="400.17" y1="364.57" x2="470.51" y2="364.7" style="stroke-width: 1.0;stroke: rgb(255,85,85);stroke-opacity: 1.0;stroke-linecap: square;stroke-linejoin: bevel;shape-rendering:geometricPrecision;" transform="matrix(1,0,0,1,0,0)" clip-path="url(#366685764078338clip-1)"/><line x1="400.17" y1="365.62" x2="470.51" y2="365.71" style="stroke-width: 1.0;stroke: rgb(85,85,255);stroke-opacity: 1.0;stroke-linecap: square;stroke-linejoin: bevel;shape-rendering:geometricPrecision;" transform="matrix(1,0,0,1,0,0)" clip-path="url(#366685764078338clip-1)"/><line x1="400.17" y1="230.23" x2="470.51" y2="248.78" style="stroke-width: 1.0;stroke: rgb(85,255,85);stroke-opacity: 1.0;stroke-linecap: square;stroke-linejoin: bevel;shape-rendering:geometricPrecision;" transform="matrix(1,0,0,1,0,0)" clip-path="url(#366685764078338clip-1)"/><line x1="400.17" y1="360.66" x2="470.51" y2="360.88" style="stroke-width: 1.0;stroke: rgb(255,255,85);stroke-opacity: 1.0;stroke-linecap: square;stroke-linejoin: bevel;shape-rendering:geometricPrecision;" transform="matrix(1,0,0,1,0,0)" clip-path="url(#366685764078338clip-1)"/><line x1="470.51" y1="364.7" x2="540.85" y2="365.65" style="stroke-width: 1.0;stroke: rgb(255,85,85);stroke-opacity: 1.0;stroke-linecap: square;stroke-linejoin: bevel;shape-rendering:geometricPrecision;" transform="matrix(1,0,0,1,0,0)" clip-path="url(#366685764078338clip-1)"/><line x1="470.51" y1="365.71" x2="540.85" y2="365.94" style="stroke-width: 1.0;stroke: rgb(85,85,255);stroke-opacity: 1.0;stroke-linecap: square;stroke-linejoin: bevel;shape-rendering:geometricPrecision;" transform="matrix(1,0,0,1,0,0)" clip-path="url(#366685764078338clip-1)"/><line x1="470.51" y1="248.78" x2="540.85" y2="328.09" style="stroke-width: 1.0;stroke: rgb(85,255,85);stroke-opacity: 1.0;stroke-linecap: square;stroke-linejoin: bevel;shape-rendering:geometricPrecision;" transform="matrix(1,0,0,1,0,0)" clip-path="url(#366685764078338clip-1)"/><line x1="470.51" y1="360.88" x2="540.85" y2="363.71" style="stroke-width: 1.0;stroke: rgb(255,255,85);stroke-opacity: 1.0;stroke-linecap: square;stroke-linejoin: bevel;shape-rendering:geometricPrecision;" transform="matrix(1,0,0,1,0,0)" clip-path="url(#366685764078338clip-1)"/><line x1="540.85" y1="365.65" x2="611.19" y2="365.97" style="stroke-width: 1.0;stroke: rgb(255,85,85);stroke-opacity: 1.0;stroke-linecap: square;stroke-linejoin: bevel;shape-rendering:geometricPrecision;" transform="matrix(1,0,0,1,0,0)" clip-path="url(#366685764078338clip-1)"/><line x1="540.85" y1="365.94" x2="611.19" y2="365.81" style="stroke-width: 1.0;stroke: rgb(85,85,255);stroke-opacity: 1.0;stroke-linecap: square;stroke-linejoin: bevel;shape-rendering:geometricPrecision;" transform="matrix(1,0,0,1,0,0)" clip-path="url(#366685764078338clip-1)"/><line x1="540.85" y1="328.09" x2="611.19" y2="359.64" style="stroke-width: 1.0;stroke: rgb(85,255,85);stroke-opacity: 1.0;stroke-linecap: square;stroke-linejoin: bevel;shape-rendering:geometricPrecision;" transform="matrix(1,0,0,1,0,0)" clip-path="url(#366685764078338clip-1)"/><line x1="540.85" y1="363.71" x2="611.19" y2="365.59" style="stroke-width: 1.0;stroke: rgb(255,255,85);stroke-opacity: 1.0;stroke-linecap: square;stroke-linejoin: bevel;shape-rendering:geometricPrecision;" transform="matrix(1,0,0,1,0,0)" clip-path="url(#366685764078338clip-1)"/><rect x="62" y="10" width="606" height="356" style="stroke-width: 0.5;stroke: rgb(0,0,0);stroke-opacity: 1.0;stroke-linecap: round;stroke-linejoin: round;shape-rendering:crispEdges;; fill: none" transform="matrix(1,0,0,1,0,0)" clip-path="url(#366685764078338clip-0)"/></svg>
